%TF.GenerationSoftware,KiCad,Pcbnew,9.0.3*%
%TF.CreationDate,2025-12-16T09:58:50+01:00*%
%TF.ProjectId,PTP_Ivan_Brajkovic_Project1AAA,5054505f-4976-4616-9e5f-4272616a6b6f,rev?*%
%TF.SameCoordinates,Original*%
%TF.FileFunction,Copper,L1,Top*%
%TF.FilePolarity,Positive*%
%FSLAX46Y46*%
G04 Gerber Fmt 4.6, Leading zero omitted, Abs format (unit mm)*
G04 Created by KiCad (PCBNEW 9.0.3) date 2025-12-16 09:58:50*
%MOMM*%
%LPD*%
G01*
G04 APERTURE LIST*
G04 Aperture macros list*
%AMRoundRect*
0 Rectangle with rounded corners*
0 $1 Rounding radius*
0 $2 $3 $4 $5 $6 $7 $8 $9 X,Y pos of 4 corners*
0 Add a 4 corners polygon primitive as box body*
4,1,4,$2,$3,$4,$5,$6,$7,$8,$9,$2,$3,0*
0 Add four circle primitives for the rounded corners*
1,1,$1+$1,$2,$3*
1,1,$1+$1,$4,$5*
1,1,$1+$1,$6,$7*
1,1,$1+$1,$8,$9*
0 Add four rect primitives between the rounded corners*
20,1,$1+$1,$2,$3,$4,$5,0*
20,1,$1+$1,$4,$5,$6,$7,0*
20,1,$1+$1,$6,$7,$8,$9,0*
20,1,$1+$1,$8,$9,$2,$3,0*%
G04 Aperture macros list end*
%TA.AperFunction,NonConductor*%
%ADD10C,0.200000*%
%TD*%
%TA.AperFunction,SMDPad,CuDef*%
%ADD11RoundRect,0.250000X-0.400000X-0.625000X0.400000X-0.625000X0.400000X0.625000X-0.400000X0.625000X0*%
%TD*%
%TA.AperFunction,SMDPad,CuDef*%
%ADD12RoundRect,0.250000X0.400000X0.625000X-0.400000X0.625000X-0.400000X-0.625000X0.400000X-0.625000X0*%
%TD*%
%TA.AperFunction,ComponentPad*%
%ADD13RoundRect,0.250000X-0.950000X-0.550000X0.950000X-0.550000X0.950000X0.550000X-0.950000X0.550000X0*%
%TD*%
%TA.AperFunction,ComponentPad*%
%ADD14O,2.400000X1.600000*%
%TD*%
%TA.AperFunction,ComponentPad*%
%ADD15RoundRect,0.250000X0.550000X0.550000X-0.550000X0.550000X-0.550000X-0.550000X0.550000X-0.550000X0*%
%TD*%
%TA.AperFunction,ComponentPad*%
%ADD16C,1.600000*%
%TD*%
%TA.AperFunction,SMDPad,CuDef*%
%ADD17RoundRect,0.250000X-0.550000X0.250000X-0.550000X-0.250000X0.550000X-0.250000X0.550000X0.250000X0*%
%TD*%
%TA.AperFunction,ComponentPad*%
%ADD18R,1.800000X1.800000*%
%TD*%
%TA.AperFunction,ComponentPad*%
%ADD19C,1.800000*%
%TD*%
%TA.AperFunction,ComponentPad*%
%ADD20C,2.000000*%
%TD*%
%TA.AperFunction,SMDPad,CuDef*%
%ADD21RoundRect,0.150000X-0.512500X-0.150000X0.512500X-0.150000X0.512500X0.150000X-0.512500X0.150000X0*%
%TD*%
%TA.AperFunction,ComponentPad*%
%ADD22RoundRect,0.250001X1.149999X1.149999X-1.149999X1.149999X-1.149999X-1.149999X1.149999X-1.149999X0*%
%TD*%
%TA.AperFunction,ComponentPad*%
%ADD23C,2.800000*%
%TD*%
%TA.AperFunction,ComponentPad*%
%ADD24RoundRect,0.250000X-0.550000X-0.550000X0.550000X-0.550000X0.550000X0.550000X-0.550000X0.550000X0*%
%TD*%
%TA.AperFunction,ComponentPad*%
%ADD25RoundRect,0.249999X-0.850001X-0.850001X0.850001X-0.850001X0.850001X0.850001X-0.850001X0.850001X0*%
%TD*%
%TA.AperFunction,ComponentPad*%
%ADD26C,2.200000*%
%TD*%
%TA.AperFunction,SMDPad,CuDef*%
%ADD27RoundRect,0.250000X-0.650000X0.412500X-0.650000X-0.412500X0.650000X-0.412500X0.650000X0.412500X0*%
%TD*%
%TA.AperFunction,ComponentPad*%
%ADD28R,1.600000X1.600000*%
%TD*%
%TA.AperFunction,SMDPad,CuDef*%
%ADD29RoundRect,0.250000X0.650000X-0.412500X0.650000X0.412500X-0.650000X0.412500X-0.650000X-0.412500X0*%
%TD*%
%TA.AperFunction,ComponentPad*%
%ADD30C,2.400000*%
%TD*%
%TA.AperFunction,ViaPad*%
%ADD31C,0.700000*%
%TD*%
%TA.AperFunction,ViaPad*%
%ADD32C,0.600000*%
%TD*%
%TA.AperFunction,Conductor*%
%ADD33C,0.200000*%
%TD*%
G04 APERTURE END LIST*
D10*
X132000000Y-130500000D02*
X132000000Y-61500000D01*
X132000000Y-61500000D02*
G75*
G02*
X137500000Y-56000000I5500000J0D01*
G01*
X226500000Y-56000000D02*
G75*
G02*
X232000000Y-61500000I0J-5500000D01*
G01*
X137500000Y-136000000D02*
G75*
G02*
X132000000Y-130500000I0J5500000D01*
G01*
X226500000Y-136000000D02*
X137500000Y-136000000D01*
X232000000Y-130500000D02*
G75*
G02*
X226500000Y-136000000I-5500000J0D01*
G01*
X137500000Y-56000000D02*
X226500000Y-56000000D01*
X232000000Y-61500000D02*
X232000000Y-130500000D01*
D11*
%TO.P,R10,1*%
%TO.N,+5V*%
X146950000Y-78000000D03*
%TO.P,R10,2*%
%TO.N,Net-(U2B-J)*%
X150050000Y-78000000D03*
%TD*%
D12*
%TO.P,R5,1*%
%TO.N,Net-(U4-a)*%
X167850000Y-103250000D03*
%TO.P,R5,2*%
%TO.N,Net-(U5-A)*%
X164750000Y-103250000D03*
%TD*%
D13*
%TO.P,U3,1,Q*%
%TO.N,Q2*%
X194190000Y-78110000D03*
D14*
%TO.P,U3,2,~{Q}*%
%TO.N,unconnected-(U3A-~{Q}-Pad2)*%
X194190000Y-80650000D03*
%TO.P,U3,3,C*%
%TO.N,Q1*%
X194190000Y-83190000D03*
%TO.P,U3,4,R*%
%TO.N,Reset*%
X194190000Y-85730000D03*
%TO.P,U3,5,K*%
%TO.N,Net-(U3A-J)*%
X194190000Y-88270000D03*
%TO.P,U3,6,J*%
X194190000Y-90810000D03*
%TO.P,U3,7,S*%
%TO.N,GND*%
X194190000Y-93350000D03*
%TO.P,U3,8,VSS*%
X194190000Y-95890000D03*
%TO.P,U3,9,S*%
X201810000Y-95890000D03*
%TO.P,U3,10,J*%
%TO.N,Net-(U3B-J)*%
X201810000Y-93350000D03*
%TO.P,U3,11,K*%
X201810000Y-90810000D03*
%TO.P,U3,12,R*%
%TO.N,Reset*%
X201810000Y-88270000D03*
%TO.P,U3,13,C*%
%TO.N,Q2*%
X201810000Y-85730000D03*
%TO.P,U3,14,~{Q}*%
%TO.N,unconnected-(U3B-~{Q}-Pad14)*%
X201810000Y-83190000D03*
%TO.P,U3,15,Q*%
%TO.N,Q3*%
X201810000Y-80650000D03*
%TO.P,U3,16,VDD*%
%TO.N,+5V*%
X201810000Y-78110000D03*
%TD*%
D15*
%TO.P,U1,1,FB*%
%TO.N,+5V*%
X187055000Y-71810000D03*
D16*
%TO.P,U1,2,SGND*%
%TO.N,GND*%
X187055000Y-69270000D03*
%TO.P,U1,3,~{ON}/OFF*%
X187055000Y-66730000D03*
%TO.P,U1,4,PGND*%
X187055000Y-64190000D03*
%TO.P,U1,5,VIN*%
%TO.N,VD*%
X179435000Y-64190000D03*
%TO.P,U1,6,NC*%
%TO.N,unconnected-(U1-NC-Pad6)*%
X179435000Y-66730000D03*
%TO.P,U1,7,OUT*%
%TO.N,Net-(D4-K)*%
X179435000Y-69270000D03*
%TO.P,U1,8,NC*%
%TO.N,unconnected-(U1-NC-Pad8)*%
X179435000Y-71810000D03*
%TD*%
D11*
%TO.P,R9,1*%
%TO.N,+5V*%
X146900000Y-73250000D03*
%TO.P,R9,2*%
%TO.N,Net-(U2A-J)*%
X150000000Y-73250000D03*
%TD*%
D12*
%TO.P,R18,1*%
%TO.N,Net-(U4-g)*%
X175100000Y-107750000D03*
%TO.P,R18,2*%
%TO.N,Net-(U5-G)*%
X172000000Y-107750000D03*
%TD*%
D17*
%TO.P,SW2,1,C*%
%TO.N,555*%
X137850000Y-92250000D03*
%TO.P,SW2,2,B*%
%TO.N,Clock*%
X140150000Y-94000000D03*
%TO.P,SW2,3,A*%
%TO.N,Net-(SW2-A)*%
X137850000Y-95750000D03*
%TD*%
D18*
%TO.P,D2,1,K*%
%TO.N,Net-(D2-K)*%
X224000000Y-83775000D03*
D19*
%TO.P,D2,2,A*%
%TO.N,Q1*%
X224000000Y-81235000D03*
%TD*%
D12*
%TO.P,R16,1*%
%TO.N,Net-(U4-e)*%
X175100000Y-103250000D03*
%TO.P,R16,2*%
%TO.N,Net-(U5-E)*%
X172000000Y-103250000D03*
%TD*%
D16*
%TO.P,R4,1*%
%TO.N,Net-(D5-K)*%
X217580000Y-95000000D03*
%TO.P,R4,2*%
%TO.N,GND*%
X207420000Y-95000000D03*
%TD*%
D12*
%TO.P,R15,1*%
%TO.N,+5V*%
X188850000Y-103500000D03*
%TO.P,R15,2*%
%TO.N,Net-(U4-BI)*%
X185750000Y-103500000D03*
%TD*%
D20*
%TO.P,SW1,1*%
%TO.N,N/C*%
X188500000Y-119000000D03*
X195000000Y-119000000D03*
%TO.P,SW1,2*%
X188500000Y-123500000D03*
X195000000Y-123500000D03*
%TD*%
D21*
%TO.P,U6,1,A*%
%TO.N,Q1*%
X196000000Y-66050000D03*
%TO.P,U6,2,GND*%
%TO.N,GND*%
X196000000Y-67000000D03*
%TO.P,U6,3,B*%
%TO.N,Q3*%
X196000000Y-67950000D03*
%TO.P,U6,4,Y*%
%TO.N,Reset*%
X198275000Y-67950000D03*
%TO.P,U6,5,VCC*%
%TO.N,+5V*%
X198275000Y-67000000D03*
%TO.P,U6,6,C*%
%TO.N,Clock*%
X198275000Y-66050000D03*
%TD*%
D11*
%TO.P,R12,1*%
%TO.N,+5V*%
X192750000Y-103750000D03*
%TO.P,R12,2*%
%TO.N,Net-(U3B-J)*%
X195850000Y-103750000D03*
%TD*%
D16*
%TO.P,R2,1*%
%TO.N,Net-(D2-K)*%
X217580000Y-83000000D03*
%TO.P,R2,2*%
%TO.N,GND*%
X207420000Y-83000000D03*
%TD*%
D18*
%TO.P,D3,1,K*%
%TO.N,Net-(D3-K)*%
X224000000Y-91000000D03*
D19*
%TO.P,D3,2,A*%
%TO.N,Q2*%
X224000000Y-88460000D03*
%TD*%
D22*
%TO.P,J1,1,Pin_1*%
%TO.N,GND*%
X207000000Y-109632500D03*
D23*
%TO.P,J1,2,Pin_2*%
%TO.N,VD*%
X202000000Y-109632500D03*
%TD*%
D12*
%TO.P,R6,1*%
%TO.N,Net-(U4-b)*%
X153100000Y-102000000D03*
%TO.P,R6,2*%
%TO.N,Net-(U5-B)*%
X150000000Y-102000000D03*
%TD*%
D24*
%TO.P,U7,1,GND*%
%TO.N,GND*%
X137445000Y-101940000D03*
D16*
%TO.P,U7,2,TR*%
%TO.N,Net-(U7-THR)*%
X137445000Y-104480000D03*
%TO.P,U7,3,Q*%
%TO.N,555*%
X137445000Y-107020000D03*
%TO.P,U7,4,R*%
%TO.N,+5V*%
X137445000Y-109560000D03*
%TO.P,U7,5,CV*%
%TO.N,unconnected-(U7-CV-Pad5)*%
X145065000Y-109560000D03*
%TO.P,U7,6,THR*%
%TO.N,Net-(U7-THR)*%
X145065000Y-107020000D03*
%TO.P,U7,7,DIS*%
%TO.N,Net-(U7-DIS)*%
X145065000Y-104480000D03*
%TO.P,U7,8,VCC*%
%TO.N,+5V*%
X145065000Y-101940000D03*
%TD*%
D15*
%TO.P,C1,1*%
%TO.N,VD*%
X163455113Y-123250000D03*
D16*
%TO.P,C1,2*%
%TO.N,GND*%
X161455113Y-123250000D03*
%TD*%
D12*
%TO.P,R20,1*%
%TO.N,Net-(U7-DIS)*%
X171500000Y-121000000D03*
%TO.P,R20,2*%
%TO.N,Net-(U7-THR)*%
X168400000Y-121000000D03*
%TD*%
D25*
%TO.P,D4,1,K*%
%TO.N,Net-(D4-K)*%
X160400000Y-70500000D03*
D26*
%TO.P,D4,2,A*%
%TO.N,GND*%
X173100000Y-70500000D03*
%TD*%
D27*
%TO.P,C3,1*%
%TO.N,GND*%
X161750000Y-113625000D03*
%TO.P,C3,2*%
%TO.N,Net-(SW2-A)*%
X161750000Y-116750000D03*
%TD*%
D13*
%TO.P,U2,1,Q*%
%TO.N,Q0*%
X161690000Y-78360000D03*
D14*
%TO.P,U2,2,~{Q}*%
%TO.N,unconnected-(U2A-~{Q}-Pad2)*%
X161690000Y-80900000D03*
%TO.P,U2,3,C*%
%TO.N,Clock*%
X161690000Y-83440000D03*
%TO.P,U2,4,R*%
%TO.N,Reset*%
X161690000Y-85980000D03*
%TO.P,U2,5,K*%
%TO.N,Net-(U2A-J)*%
X161690000Y-88520000D03*
%TO.P,U2,6,J*%
X161690000Y-91060000D03*
%TO.P,U2,7,S*%
%TO.N,GND*%
X161690000Y-93600000D03*
%TO.P,U2,8,VSS*%
X161690000Y-96140000D03*
%TO.P,U2,9,S*%
X169310000Y-96140000D03*
%TO.P,U2,10,J*%
%TO.N,Net-(U2B-J)*%
X169310000Y-93600000D03*
%TO.P,U2,11,K*%
X169310000Y-91060000D03*
%TO.P,U2,12,R*%
%TO.N,Reset*%
X169310000Y-88520000D03*
%TO.P,U2,13,C*%
%TO.N,Q0*%
X169310000Y-85980000D03*
%TO.P,U2,14,~{Q}*%
%TO.N,unconnected-(U2B-~{Q}-Pad14)*%
X169310000Y-83440000D03*
%TO.P,U2,15,Q*%
%TO.N,Q1*%
X169310000Y-80900000D03*
%TO.P,U2,16,VDD*%
%TO.N,+5V*%
X169310000Y-78360000D03*
%TD*%
D28*
%TO.P,U5,1,CA*%
%TO.N,+5V*%
X153967500Y-94267500D03*
D16*
%TO.P,U5,2,F*%
%TO.N,Net-(U5-F)*%
X153967500Y-91727500D03*
%TO.P,U5,3,G*%
%TO.N,Net-(U5-G)*%
X153967500Y-89187500D03*
%TO.P,U5,4,E*%
%TO.N,Net-(U5-E)*%
X153967500Y-86647500D03*
%TO.P,U5,5,D*%
%TO.N,Net-(U5-D)*%
X153967500Y-84107500D03*
%TO.P,U5,6,CA*%
%TO.N,+5V*%
X148887500Y-84107500D03*
%TO.P,U5,7,DP*%
%TO.N,unconnected-(U5-DP-Pad7)*%
X148887500Y-86647500D03*
%TO.P,U5,8,C*%
%TO.N,Net-(U5-C)*%
X148887500Y-89187500D03*
%TO.P,U5,9,B*%
%TO.N,Net-(U5-B)*%
X148887500Y-91727500D03*
%TO.P,U5,10,A*%
%TO.N,Net-(U5-A)*%
X148887500Y-94267500D03*
%TD*%
D29*
%TO.P,C5,1*%
%TO.N,Net-(U7-THR)*%
X156250000Y-116812500D03*
%TO.P,C5,2*%
%TO.N,GND*%
X156250000Y-113687500D03*
%TD*%
D12*
%TO.P,R19,1*%
%TO.N,+5V*%
X179100000Y-121250000D03*
%TO.P,R19,2*%
%TO.N,Net-(U7-DIS)*%
X176000000Y-121250000D03*
%TD*%
D16*
%TO.P,R1,1*%
%TO.N,Net-(D1-K)*%
X207420000Y-78000000D03*
%TO.P,R1,2*%
%TO.N,GND*%
X217580000Y-78000000D03*
%TD*%
D11*
%TO.P,R7,1*%
%TO.N,+5V*%
X155400000Y-128000000D03*
%TO.P,R7,2*%
%TO.N,Net-(SW2-A)*%
X158500000Y-128000000D03*
%TD*%
D12*
%TO.P,R8,1*%
%TO.N,Net-(U4-c)*%
X153250000Y-106000000D03*
%TO.P,R8,2*%
%TO.N,Net-(U5-C)*%
X150150000Y-106000000D03*
%TD*%
D30*
%TO.P,L1,1*%
%TO.N,Net-(D4-K)*%
X151750000Y-67000000D03*
%TO.P,L1,2*%
%TO.N,+5V*%
X154750000Y-67000000D03*
%TD*%
D11*
%TO.P,R13,1*%
%TO.N,Net-(SW1B-D)*%
X168400000Y-116500000D03*
%TO.P,R13,2*%
%TO.N,Net-(SW2-A)*%
X171500000Y-116500000D03*
%TD*%
%TO.P,R11,1*%
%TO.N,+5V*%
X192750000Y-107500000D03*
%TO.P,R11,2*%
%TO.N,Net-(U3A-J)*%
X195850000Y-107500000D03*
%TD*%
D29*
%TO.P,C4,1*%
%TO.N,+5V*%
X150500000Y-116875000D03*
%TO.P,C4,2*%
%TO.N,GND*%
X150500000Y-113750000D03*
%TD*%
D15*
%TO.P,C2,1*%
%TO.N,+5V*%
X152500000Y-123250000D03*
D16*
%TO.P,C2,2*%
%TO.N,GND*%
X150500000Y-123250000D03*
%TD*%
D12*
%TO.P,R14,1*%
%TO.N,Net-(U4-d)*%
X167850000Y-107500000D03*
%TO.P,R14,2*%
%TO.N,Net-(U5-D)*%
X164750000Y-107500000D03*
%TD*%
D18*
%TO.P,D1,1,K*%
%TO.N,Net-(D1-K)*%
X224000000Y-76540000D03*
D19*
%TO.P,D1,2,A*%
%TO.N,QO*%
X224000000Y-74000000D03*
%TD*%
D12*
%TO.P,R17,1*%
%TO.N,Net-(U4-f)*%
X182600000Y-103500000D03*
%TO.P,R17,2*%
%TO.N,Net-(U5-F)*%
X179500000Y-103500000D03*
%TD*%
D18*
%TO.P,D5,1,K*%
%TO.N,Net-(D5-K)*%
X224000000Y-98775000D03*
D19*
%TO.P,D5,2,A*%
%TO.N,Q3*%
X224000000Y-96235000D03*
%TD*%
D16*
%TO.P,R3,1*%
%TO.N,Net-(D3-K)*%
X217580000Y-89000000D03*
%TO.P,R3,2*%
%TO.N,GND*%
X207420000Y-89000000D03*
%TD*%
D13*
%TO.P,U4,1,B*%
%TO.N,Q1*%
X177690000Y-78110000D03*
D14*
%TO.P,U4,2,C*%
%TO.N,Q2*%
X177690000Y-80650000D03*
%TO.P,U4,3,LT*%
%TO.N,Net-(U4-BI)*%
X177690000Y-83190000D03*
%TO.P,U4,4,BI*%
X177690000Y-85730000D03*
%TO.P,U4,5,RBI*%
X177690000Y-88270000D03*
%TO.P,U4,6,D*%
%TO.N,Q3*%
X177690000Y-90810000D03*
%TO.P,U4,7,A*%
%TO.N,Q0*%
X177690000Y-93350000D03*
%TO.P,U4,8,GND*%
%TO.N,GND*%
X177690000Y-95890000D03*
%TO.P,U4,9,e*%
%TO.N,Net-(U4-e)*%
X185310000Y-95890000D03*
%TO.P,U4,10,d*%
%TO.N,Net-(U4-d)*%
X185310000Y-93350000D03*
%TO.P,U4,11,c*%
%TO.N,Net-(U4-c)*%
X185310000Y-90810000D03*
%TO.P,U4,12,b*%
%TO.N,Net-(U4-b)*%
X185310000Y-88270000D03*
%TO.P,U4,13,a*%
%TO.N,Net-(U4-a)*%
X185310000Y-85730000D03*
%TO.P,U4,14,g*%
%TO.N,Net-(U4-g)*%
X185310000Y-83190000D03*
%TO.P,U4,15,f*%
%TO.N,Net-(U4-f)*%
X185310000Y-80650000D03*
%TO.P,U4,16,VCC*%
%TO.N,+5V*%
X185310000Y-78110000D03*
%TD*%
D31*
%TO.N,Net-(U5-C)*%
X149607880Y-97707880D03*
X150500000Y-98700000D03*
%TO.N,Net-(SW2-A)*%
X148657880Y-98657880D03*
X149577120Y-99577120D03*
%TO.N,Net-(U5-A)*%
X151400000Y-97900000D03*
X150357880Y-96957880D03*
%TO.N,Net-(U5-C)*%
X155675000Y-99325000D03*
X155400000Y-101350000D03*
X155700000Y-102700000D03*
X154700000Y-100650000D03*
%TO.N,Net-(U5-F)*%
X160800000Y-102200000D03*
X160475000Y-99225000D03*
%TO.N,Net-(U4-b)*%
X159500000Y-100000000D03*
%TO.N,Net-(U5-A)*%
X157500000Y-98500000D03*
X158700000Y-98500000D03*
X162000000Y-98500000D03*
%TO.N,Net-(U5-E)*%
X162600000Y-99350000D03*
%TO.N,Net-(U5-A)*%
X163800000Y-99350000D03*
%TO.N,Net-(U5-E)*%
X162695014Y-101597507D03*
%TO.N,Net-(U5-A)*%
X163500000Y-102000000D03*
%TO.N,Net-(U4-c)*%
X158300000Y-103700000D03*
X159700000Y-102300000D03*
%TO.N,Net-(U5-G)*%
X156959620Y-105859620D03*
X156800000Y-104100000D03*
%TO.N,Net-(U5-D)*%
X156000000Y-107500000D03*
X159750000Y-107500000D03*
%TO.N,Net-(U5-G)*%
X160250000Y-109250000D03*
X158250000Y-109250000D03*
%TO.N,Net-(SW2-A)*%
X159000000Y-112750000D03*
X159000000Y-110500000D03*
%TO.N,+5V*%
X138250000Y-112750000D03*
X138250000Y-114750000D03*
%TO.N,Net-(U7-THR)*%
X152750000Y-112750000D03*
X152750000Y-114500000D03*
%TO.N,+5V*%
X148250000Y-119750000D03*
X150000000Y-119750000D03*
%TO.N,Net-(SW2-A)*%
X159000000Y-117750000D03*
X158500000Y-120250000D03*
%TO.N,+5V*%
X160500000Y-127250000D03*
X162500000Y-127250000D03*
X166000000Y-127250000D03*
X169000000Y-127250000D03*
D32*
%TO.N,Q2*%
X181500000Y-81000000D03*
X196500000Y-79000000D03*
%TO.N,+5V*%
X173500000Y-75000000D03*
X171400000Y-76000000D03*
%TO.N,Reset*%
X192100000Y-87000000D03*
X173000000Y-90000000D03*
X172000000Y-89500000D03*
X171400000Y-87500000D03*
%TO.N,Q0*%
X175100000Y-93000000D03*
X173900000Y-93000000D03*
X171400000Y-86500000D03*
X172600000Y-87500000D03*
%TO.N,Q1*%
X172600000Y-80500000D03*
X171400000Y-80500000D03*
%TO.N,+5V*%
X154000000Y-77000000D03*
X152000000Y-79000000D03*
X185000000Y-76100000D03*
X184000000Y-73400000D03*
X190000000Y-66049000D03*
X190000000Y-64849000D03*
X194000000Y-63100000D03*
X196036765Y-62963235D03*
X203000000Y-76100000D03*
X203000000Y-74500000D03*
%TO.N,Clock*%
X159500000Y-77000000D03*
X159500000Y-74400000D03*
X157500000Y-69000000D03*
X159000000Y-67500000D03*
X190500000Y-61000000D03*
X190500000Y-62500000D03*
%TO.N,Reset*%
X196500000Y-76100000D03*
X197000000Y-73900000D03*
X199000000Y-73500000D03*
X201000000Y-73500000D03*
%TO.N,Q3*%
X200000000Y-76100000D03*
X200000000Y-74500000D03*
X198500000Y-74500000D03*
X192000000Y-74000000D03*
X199000000Y-76100000D03*
X182500000Y-74900000D03*
X182500000Y-76100000D03*
X190000000Y-74000000D03*
%TO.N,Net-(U2B-J)*%
X158000000Y-75000000D03*
X157000000Y-76600000D03*
X155000000Y-78000000D03*
X153500000Y-79000000D03*
%TO.N,+5V*%
X149000000Y-82350000D03*
X148500000Y-81000000D03*
%TO.N,Net-(U2A-J)*%
X157500000Y-82500000D03*
X157000000Y-81000000D03*
%TO.N,+5V*%
X141750000Y-105080000D03*
X201750000Y-76100000D03*
X145500000Y-82750000D03*
X151250000Y-86250000D03*
X142779661Y-103936724D03*
X201750000Y-74750000D03*
X151250000Y-84500000D03*
X145250000Y-80750000D03*
%TO.N,Net-(D1-K)*%
X207500000Y-76100000D03*
X207500000Y-74750000D03*
%TO.N,Q1*%
X205750000Y-75500000D03*
X204250000Y-75500000D03*
%TO.N,Q2*%
X205600000Y-86000000D03*
X203650000Y-86000000D03*
%TO.N,Q3*%
X204250000Y-92650000D03*
X205750000Y-92750000D03*
%TO.N,Net-(U4-a)*%
X175500000Y-98250000D03*
X169750000Y-99250000D03*
X173500000Y-98250000D03*
X169750000Y-102000000D03*
%TO.N,Net-(U5-A)*%
X156000000Y-98500000D03*
%TO.N,Net-(U4-b)*%
X157750000Y-101500000D03*
%TO.N,Net-(U5-B)*%
X144000000Y-96750000D03*
X148041765Y-101041765D03*
X144000000Y-94750000D03*
X147000000Y-100000000D03*
%TO.N,Net-(U5-C)*%
X145424265Y-94424265D03*
X144500000Y-93500000D03*
%TO.N,Net-(U4-c)*%
X188000000Y-100750000D03*
X188000000Y-99250000D03*
%TO.N,Net-(U3B-J)*%
X197150000Y-103500000D03*
X198500000Y-102250000D03*
%TO.N,Net-(U5-D)*%
X142250000Y-94750000D03*
X145750000Y-99750000D03*
X142250000Y-96500000D03*
X147291765Y-101791765D03*
%TO.N,Net-(U4-d)*%
X184200735Y-102799265D03*
X183750000Y-105750000D03*
X184250000Y-99250000D03*
X184500000Y-104000000D03*
%TO.N,Net-(U4-BI)*%
X174500000Y-101350000D03*
X174500000Y-99250000D03*
%TO.N,Net-(U4-e)*%
X182250000Y-99250000D03*
X182250000Y-101950000D03*
%TO.N,Net-(U4-f)*%
X190750000Y-104100000D03*
X190750000Y-102750000D03*
%TO.N,Net-(U4-g)*%
X190500000Y-84500000D03*
X188750000Y-85500000D03*
X191550003Y-104100000D03*
X191500000Y-102250000D03*
%TO.N,Net-(U5-G)*%
X156750000Y-99000000D03*
X155750000Y-90250000D03*
X158299265Y-94950735D03*
X157100000Y-90250000D03*
X156750000Y-96500000D03*
%TO.N,555*%
X134900000Y-107000000D03*
X136100000Y-107000000D03*
%TD*%
D33*
%TO.N,Net-(U5-C)*%
X149565760Y-97750000D02*
X148750000Y-97750000D01*
X149607880Y-97707880D02*
X149565760Y-97750000D01*
X150498950Y-98698950D02*
X150500000Y-98700000D01*
X151125000Y-99325000D02*
X150498950Y-98698950D01*
%TO.N,Net-(SW2-A)*%
X148657880Y-98657880D02*
X145750000Y-95750000D01*
X150000000Y-100000000D02*
X149577120Y-99577120D01*
%TO.N,Net-(U5-A)*%
X150250000Y-96850000D02*
X150250000Y-95630000D01*
X150357880Y-96957880D02*
X150250000Y-96850000D01*
X155100000Y-97900000D02*
X151400000Y-97900000D01*
X155250000Y-97750000D02*
X155100000Y-97900000D01*
%TO.N,Net-(U5-C)*%
X155675000Y-99325000D02*
X151125000Y-99325000D01*
X155400000Y-101350000D02*
X154700000Y-100650000D01*
X155700000Y-103700000D02*
X155700000Y-102700000D01*
X155750000Y-103750000D02*
X155700000Y-103700000D01*
%TO.N,Net-(U5-F)*%
X160750000Y-102250000D02*
X160800000Y-102200000D01*
X160750000Y-105000000D02*
X160750000Y-102250000D01*
X160475000Y-99225000D02*
X156000000Y-94750000D01*
%TO.N,Net-(U5-A)*%
X158700000Y-98500000D02*
X157500000Y-98500000D01*
X163800000Y-98500000D02*
X162000000Y-98500000D01*
%TO.N,Net-(U5-E)*%
X162550000Y-99400000D02*
X162600000Y-99350000D01*
X161900000Y-99400000D02*
X162550000Y-99400000D01*
%TO.N,Net-(U5-A)*%
X163800000Y-98500000D02*
X163800000Y-99350000D01*
%TO.N,Net-(U5-E)*%
X162942521Y-101350000D02*
X162695014Y-101597507D01*
X170100000Y-101350000D02*
X162942521Y-101350000D01*
%TO.N,Net-(U4-c)*%
X158200000Y-103700000D02*
X158300000Y-103700000D01*
X155900000Y-106000000D02*
X158200000Y-103700000D01*
%TO.N,Net-(U5-G)*%
X156959620Y-107788910D02*
X156959620Y-105859620D01*
X156874265Y-107874265D02*
X156959620Y-107788910D01*
X156900000Y-104100000D02*
X156800000Y-104100000D01*
X158351000Y-102649000D02*
X156900000Y-104100000D01*
%TO.N,Net-(U5-D)*%
X149838840Y-107500000D02*
X156000000Y-107500000D01*
%TO.N,Net-(U5-G)*%
X170500000Y-109250000D02*
X160250000Y-109250000D01*
%TO.N,Net-(SW2-A)*%
X159000000Y-114000000D02*
X159000000Y-112750000D01*
%TO.N,Net-(U7-THR)*%
X147020000Y-107020000D02*
X152750000Y-112750000D01*
X146682500Y-107020000D02*
X147020000Y-107020000D01*
%TO.N,Net-(SW2-A)*%
X160000000Y-116750000D02*
X159000000Y-117750000D01*
%TO.N,+5V*%
X162500000Y-127250000D02*
X162250000Y-127250000D01*
%TO.N,Q2*%
X181150000Y-80650000D02*
X177690000Y-80650000D01*
X181500000Y-81000000D02*
X181150000Y-80650000D01*
X195080000Y-79000000D02*
X196500000Y-79000000D01*
X194190000Y-78110000D02*
X195080000Y-79000000D01*
%TO.N,Net-(U3B-J)*%
X201810000Y-90810000D02*
X201810000Y-93350000D01*
%TO.N,Net-(U4-BI)*%
X177690000Y-83190000D02*
X177690000Y-88270000D01*
%TO.N,+5V*%
X177802050Y-75000000D02*
X180992050Y-71810000D01*
X173500000Y-75000000D02*
X177802050Y-75000000D01*
X180992050Y-71810000D02*
X187055000Y-71810000D01*
X171400000Y-76270000D02*
X171400000Y-76000000D01*
X169310000Y-78360000D02*
X171400000Y-76270000D01*
%TO.N,Reset*%
X192920000Y-87000000D02*
X194190000Y-85730000D01*
X192100000Y-87000000D02*
X192920000Y-87000000D01*
X172500000Y-89500000D02*
X173000000Y-90000000D01*
X172000000Y-89500000D02*
X172500000Y-89500000D01*
X170380000Y-88520000D02*
X171400000Y-87500000D01*
X169310000Y-88520000D02*
X170380000Y-88520000D01*
X164230000Y-88520000D02*
X161690000Y-85980000D01*
X169310000Y-88520000D02*
X164230000Y-88520000D01*
%TO.N,Q0*%
X175100000Y-93000000D02*
X177340000Y-93000000D01*
X173900000Y-88800000D02*
X173900000Y-93000000D01*
X172600000Y-87500000D02*
X173900000Y-88800000D01*
X177340000Y-93000000D02*
X177690000Y-93350000D01*
X169310000Y-85980000D02*
X170880000Y-85980000D01*
X170880000Y-85980000D02*
X171400000Y-86500000D01*
%TO.N,Q1*%
X174990000Y-78110000D02*
X177690000Y-78110000D01*
X172600000Y-80500000D02*
X174990000Y-78110000D01*
X169710000Y-80500000D02*
X171400000Y-80500000D01*
X169310000Y-80900000D02*
X169710000Y-80500000D01*
%TO.N,+5V*%
X150000000Y-81000000D02*
X148500000Y-81000000D01*
X155000000Y-76000000D02*
X154000000Y-77000000D01*
X152000000Y-79000000D02*
X150000000Y-81000000D01*
X185310000Y-76410000D02*
X185310000Y-78110000D01*
X185000000Y-76100000D02*
X185310000Y-76410000D01*
X185590000Y-71810000D02*
X184000000Y-73400000D01*
X187055000Y-71810000D02*
X185590000Y-71810000D01*
X190000000Y-68865000D02*
X187055000Y-71810000D01*
X190000000Y-66049000D02*
X190000000Y-68865000D01*
X192251000Y-64849000D02*
X190000000Y-64849000D01*
X194000000Y-63100000D02*
X192251000Y-64849000D01*
X196492703Y-62963235D02*
X196036765Y-62963235D01*
X199238500Y-65709032D02*
X196492703Y-62963235D01*
X199238500Y-66390968D02*
X199238500Y-65709032D01*
X198629468Y-67000000D02*
X199238500Y-66390968D01*
X198275000Y-67000000D02*
X198629468Y-67000000D01*
X203000000Y-76920000D02*
X201810000Y-78110000D01*
X203000000Y-76100000D02*
X203000000Y-76920000D01*
X203000000Y-71062500D02*
X203000000Y-74500000D01*
X198937500Y-67000000D02*
X203000000Y-71062500D01*
X198275000Y-67000000D02*
X198937500Y-67000000D01*
%TO.N,Clock*%
X159500000Y-81250000D02*
X161690000Y-83440000D01*
X159500000Y-77000000D02*
X159500000Y-81250000D01*
X157500000Y-69000000D02*
X157500000Y-72400000D01*
X165500000Y-61000000D02*
X159000000Y-67500000D01*
X190500000Y-61000000D02*
X165500000Y-61000000D01*
X194725000Y-62500000D02*
X190500000Y-62500000D01*
X198275000Y-66050000D02*
X194725000Y-62500000D01*
X157500000Y-72400000D02*
X159500000Y-74400000D01*
%TO.N,Reset*%
X195691000Y-84229000D02*
X194190000Y-85730000D01*
X195691000Y-80191000D02*
X195691000Y-84229000D01*
X194711000Y-79211000D02*
X195691000Y-80191000D01*
X193004840Y-79211000D02*
X194711000Y-79211000D01*
X192689000Y-78895160D02*
X193004840Y-79211000D01*
X192689000Y-77324840D02*
X192689000Y-78895160D01*
X193913840Y-76100000D02*
X192689000Y-77324840D01*
X196500000Y-76100000D02*
X193913840Y-76100000D01*
X197400000Y-73500000D02*
X197000000Y-73900000D01*
X199000000Y-73500000D02*
X197400000Y-73500000D01*
X201000000Y-70675000D02*
X201000000Y-73500000D01*
X198275000Y-67950000D02*
X201000000Y-70675000D01*
%TO.N,Q3*%
X200000000Y-78840000D02*
X201810000Y-80650000D01*
X200000000Y-76100000D02*
X200000000Y-78840000D01*
X200000000Y-71950000D02*
X200000000Y-74500000D01*
X196000000Y-67950000D02*
X200000000Y-71950000D01*
X199000000Y-76100000D02*
X199000000Y-77840000D01*
X192500000Y-74500000D02*
X198500000Y-74500000D01*
X199000000Y-77840000D02*
X201810000Y-80650000D01*
X192000000Y-74000000D02*
X192500000Y-74500000D01*
X183400000Y-74000000D02*
X190000000Y-74000000D01*
X182500000Y-74900000D02*
X183400000Y-74000000D01*
X182500000Y-86000000D02*
X182500000Y-76100000D01*
X177690000Y-90810000D02*
X182500000Y-86000000D01*
%TO.N,GND*%
X196703468Y-65449000D02*
X188336000Y-65449000D01*
X196963500Y-65709032D02*
X196703468Y-65449000D01*
X196662499Y-67000000D02*
X196963500Y-66698999D01*
X196000000Y-67000000D02*
X196662499Y-67000000D01*
X196963500Y-66698999D02*
X196963500Y-65709032D01*
X188336000Y-65449000D02*
X187055000Y-66730000D01*
%TO.N,Q0*%
X161690000Y-78360000D02*
X169310000Y-85980000D01*
%TO.N,Net-(U2B-J)*%
X172000000Y-75500000D02*
X172000000Y-88370000D01*
X171500000Y-75000000D02*
X172000000Y-75500000D01*
X158000000Y-75000000D02*
X171500000Y-75000000D01*
X155600000Y-78000000D02*
X157000000Y-76600000D01*
X172000000Y-88370000D02*
X169310000Y-91060000D01*
X155000000Y-78000000D02*
X155600000Y-78000000D01*
X152500000Y-78000000D02*
X153500000Y-79000000D01*
X150050000Y-78000000D02*
X152500000Y-78000000D01*
%TO.N,+5V*%
X149000000Y-82350000D02*
X149000000Y-83995000D01*
X149000000Y-83995000D02*
X148887500Y-84107500D01*
X146950000Y-79450000D02*
X148500000Y-81000000D01*
X146950000Y-78000000D02*
X146950000Y-79450000D01*
%TO.N,Net-(U2A-J)*%
X157500000Y-84330000D02*
X161690000Y-88520000D01*
X157500000Y-82500000D02*
X157500000Y-84330000D01*
X150000000Y-74000000D02*
X157000000Y-81000000D01*
X150000000Y-73250000D02*
X150000000Y-74000000D01*
%TO.N,Net-(D4-K)*%
X162429999Y-68470001D02*
X160400000Y-70500000D01*
X178635001Y-68470001D02*
X162429999Y-68470001D01*
X179435000Y-69270000D02*
X178635001Y-68470001D01*
X155399000Y-65499000D02*
X160400000Y-70500000D01*
X153251000Y-65499000D02*
X155399000Y-65499000D01*
X151750000Y-67000000D02*
X153251000Y-65499000D01*
%TO.N,+5V*%
X155000000Y-67250000D02*
X155000000Y-76000000D01*
X166950000Y-76000000D02*
X169310000Y-78360000D01*
X154750000Y-67000000D02*
X155000000Y-67250000D01*
X155000000Y-76000000D02*
X166950000Y-76000000D01*
%TO.N,GND*%
X194190000Y-93350000D02*
X194190000Y-95890000D01*
X207250000Y-81500000D02*
X207420000Y-81670000D01*
X137445000Y-101940000D02*
X135560000Y-101940000D01*
X150562500Y-113687500D02*
X150500000Y-113750000D01*
X161455113Y-130205113D02*
X161500000Y-130250000D01*
X150500000Y-123250000D02*
X149299000Y-122049000D01*
X149299000Y-114951000D02*
X150500000Y-113750000D01*
X217000000Y-81000000D02*
X207250000Y-81000000D01*
X136750000Y-113750000D02*
X150500000Y-113750000D01*
X207420000Y-81670000D02*
X207420000Y-83000000D01*
X158038500Y-111899000D02*
X156250000Y-113687500D01*
X135560000Y-101940000D02*
X135500000Y-102000000D01*
X160024000Y-111899000D02*
X158038500Y-111899000D01*
X156250000Y-113687500D02*
X150562500Y-113687500D01*
X161455113Y-123250000D02*
X161250000Y-123455113D01*
X161455113Y-123250000D02*
X161455113Y-130205113D01*
X150500000Y-130250000D02*
X150500000Y-123250000D01*
X161750000Y-113625000D02*
X160024000Y-111899000D01*
X161500000Y-130250000D02*
X150500000Y-130250000D01*
X207250000Y-81000000D02*
X207250000Y-81500000D01*
X149299000Y-122049000D02*
X149299000Y-114951000D01*
X217580000Y-78000000D02*
X217500000Y-78000000D01*
X217580000Y-80420000D02*
X217000000Y-81000000D01*
X135500000Y-112500000D02*
X136750000Y-113750000D01*
X217580000Y-78000000D02*
X217580000Y-80420000D01*
X135500000Y-102000000D02*
X135500000Y-112500000D01*
X137445000Y-101940000D02*
X137445000Y-101945000D01*
%TO.N,VD*%
X202000000Y-109632500D02*
X205000000Y-106632500D01*
X181875000Y-61750000D02*
X179435000Y-64190000D01*
X205000000Y-61750000D02*
X181875000Y-61750000D01*
X205000000Y-106632500D02*
X205000000Y-61750000D01*
X168455113Y-128250000D02*
X202000000Y-128250000D01*
X202000000Y-128250000D02*
X202000000Y-109632500D01*
X163455113Y-123250000D02*
X168455113Y-128250000D01*
%TO.N,+5V*%
X192500000Y-103500000D02*
X192750000Y-103750000D01*
X137445000Y-109305000D02*
X141670000Y-105080000D01*
X160500000Y-127250000D02*
X160500000Y-129500000D01*
X145065000Y-101940000D02*
X146295000Y-101940000D01*
X173100000Y-127250000D02*
X169000000Y-127250000D01*
X145250000Y-80750000D02*
X146950000Y-79050000D01*
X201750000Y-69812501D02*
X198937499Y-67000000D01*
X142779661Y-103936724D02*
X143216385Y-103500000D01*
X143216385Y-103500000D02*
X143505000Y-103500000D01*
X151250000Y-91550000D02*
X153967500Y-94267500D01*
X150857500Y-84107500D02*
X151250000Y-84500000D01*
X150500000Y-116875000D02*
X150500000Y-119250000D01*
X156900000Y-129500000D02*
X155400000Y-128000000D01*
X146950000Y-79050000D02*
X146950000Y-78000000D01*
X138250000Y-112750000D02*
X137445000Y-111945000D01*
X201810000Y-78110000D02*
X201810000Y-76160000D01*
X137445000Y-111945000D02*
X137445000Y-109560000D01*
X160500000Y-129500000D02*
X156900000Y-129500000D01*
X148887500Y-84107500D02*
X150857500Y-84107500D01*
X188850000Y-103500000D02*
X192500000Y-103500000D01*
X148250000Y-119750000D02*
X143250000Y-119750000D01*
X201750000Y-74750000D02*
X201750000Y-69812501D01*
X143505000Y-103500000D02*
X145065000Y-101940000D01*
X201810000Y-76160000D02*
X201750000Y-76100000D01*
X150500000Y-116875000D02*
X150500000Y-118000000D01*
X152500000Y-120000000D02*
X152500000Y-123250000D01*
X179100000Y-121250000D02*
X173100000Y-127250000D01*
X146950000Y-77950000D02*
X146900000Y-77900000D01*
X146857500Y-84107500D02*
X145500000Y-82750000D01*
X143250000Y-119750000D02*
X138250000Y-114750000D01*
X166000000Y-127250000D02*
X162500000Y-127250000D01*
X146295000Y-101940000D02*
X153967500Y-94267500D01*
X137445000Y-109560000D02*
X137445000Y-109305000D01*
X146950000Y-78000000D02*
X146950000Y-77950000D01*
X155400000Y-128000000D02*
X155400000Y-126150000D01*
X146900000Y-77900000D02*
X146900000Y-73250000D01*
X151250000Y-86250000D02*
X151250000Y-91550000D01*
X148887500Y-84107500D02*
X146857500Y-84107500D01*
X150500000Y-118000000D02*
X152500000Y-120000000D01*
X198937499Y-67000000D02*
X198275000Y-67000000D01*
X192750000Y-107500000D02*
X192750000Y-103750000D01*
X150500000Y-119250000D02*
X150000000Y-119750000D01*
X141670000Y-105080000D02*
X141750000Y-105080000D01*
X179100000Y-121150000D02*
X192750000Y-107500000D01*
X155400000Y-126150000D02*
X152500000Y-123250000D01*
X179100000Y-121250000D02*
X179100000Y-121150000D01*
%TO.N,Net-(SW2-A)*%
X158500000Y-128000000D02*
X158500000Y-120250000D01*
X159000000Y-101250000D02*
X159000000Y-110500000D01*
X171500000Y-116500000D02*
X168500000Y-113500000D01*
X168500000Y-113500000D02*
X165750000Y-113500000D01*
X162500000Y-116750000D02*
X161750000Y-116750000D01*
X160000000Y-116750000D02*
X161750000Y-116750000D01*
X150000000Y-100000000D02*
X157750000Y-100000000D01*
X157750000Y-100000000D02*
X159000000Y-101250000D01*
X137850000Y-95750000D02*
X145750000Y-95750000D01*
X165750000Y-113500000D02*
X162500000Y-116750000D01*
X159000000Y-114000000D02*
X161750000Y-116750000D01*
%TO.N,Net-(U7-THR)*%
X166750000Y-120000000D02*
X167750000Y-121000000D01*
X145065000Y-107020000D02*
X146682500Y-107020000D01*
X167750000Y-121000000D02*
X168400000Y-121000000D01*
X142525000Y-104480000D02*
X145065000Y-107020000D01*
X159437500Y-120000000D02*
X166750000Y-120000000D01*
X152750000Y-114500000D02*
X155062500Y-116812500D01*
X156250000Y-116812500D02*
X159437500Y-120000000D01*
X137445000Y-104480000D02*
X142525000Y-104480000D01*
X155062500Y-116812500D02*
X156250000Y-116812500D01*
%TO.N,Net-(D1-K)*%
X222210000Y-74750000D02*
X207500000Y-74750000D01*
X224000000Y-76540000D02*
X222210000Y-74750000D01*
X207500000Y-76100000D02*
X207500000Y-77920000D01*
X207500000Y-77920000D02*
X207420000Y-78000000D01*
%TO.N,Q1*%
X191750000Y-75500000D02*
X191750000Y-80750000D01*
X190000000Y-82750000D02*
X190000000Y-75500000D01*
X191750000Y-80750000D02*
X194190000Y-83190000D01*
X190560000Y-83190000D02*
X190500000Y-83250000D01*
X194190000Y-83190000D02*
X192690000Y-83190000D01*
X192690000Y-83190000D02*
X191000000Y-81500000D01*
X195337501Y-66050000D02*
X196000000Y-66050000D01*
X219250000Y-78250000D02*
X219250000Y-75500000D01*
X219750000Y-78750000D02*
X219250000Y-78250000D01*
X224000000Y-81235000D02*
X222235000Y-81235000D01*
X191000000Y-81500000D02*
X191000000Y-70387501D01*
X222235000Y-81235000D02*
X219750000Y-78750000D01*
X204250000Y-75500000D02*
X191750000Y-75500000D01*
X177690000Y-75560000D02*
X177690000Y-78110000D01*
X191000000Y-70387501D02*
X195337501Y-66050000D01*
X190000000Y-75500000D02*
X177750000Y-75500000D01*
X219250000Y-75500000D02*
X205750000Y-75500000D01*
X194190000Y-83190000D02*
X190560000Y-83190000D01*
X190500000Y-83250000D02*
X190000000Y-82750000D01*
X177750000Y-75500000D02*
X177690000Y-75560000D01*
%TO.N,Net-(D2-K)*%
X217580000Y-83000000D02*
X223225000Y-83000000D01*
X223225000Y-83000000D02*
X224000000Y-83775000D01*
%TO.N,Q2*%
X203650000Y-86000000D02*
X202080000Y-86000000D01*
X194190000Y-78110000D02*
X201810000Y-85730000D01*
X202080000Y-86000000D02*
X201810000Y-85730000D01*
X224000000Y-88460000D02*
X221540000Y-86000000D01*
X221540000Y-86000000D02*
X205600000Y-86000000D01*
%TO.N,Net-(D3-K)*%
X222000000Y-89000000D02*
X224000000Y-91000000D01*
X217580000Y-89000000D02*
X222000000Y-89000000D01*
%TO.N,Net-(D5-K)*%
X217500000Y-103500000D02*
X223750000Y-103500000D01*
X217500000Y-95000000D02*
X217500000Y-103500000D01*
X217580000Y-95000000D02*
X217500000Y-95000000D01*
X223750000Y-103500000D02*
X224000000Y-103750000D01*
X224000000Y-103750000D02*
X224000000Y-98775000D01*
%TO.N,Q3*%
X204250000Y-83090000D02*
X201810000Y-80650000D01*
X204250000Y-92650000D02*
X204250000Y-83090000D01*
X218750000Y-92750000D02*
X205750000Y-92750000D01*
X222235000Y-96235000D02*
X218750000Y-92750000D01*
X224000000Y-96235000D02*
X222235000Y-96235000D01*
%TO.N,Net-(U4-a)*%
X182250000Y-88790000D02*
X185310000Y-85730000D01*
X170750000Y-98250000D02*
X173500000Y-98250000D01*
X175500000Y-98250000D02*
X182250000Y-98250000D01*
X169750000Y-99250000D02*
X170750000Y-98250000D01*
X167850000Y-103250000D02*
X168500000Y-103250000D01*
X168500000Y-103250000D02*
X169750000Y-102000000D01*
X182250000Y-98250000D02*
X182250000Y-88790000D01*
%TO.N,Net-(U5-A)*%
X156000000Y-98500000D02*
X155250000Y-97750000D01*
X158750000Y-98500000D02*
X158700000Y-98500000D01*
X164750000Y-103250000D02*
X163500000Y-102000000D01*
X150250000Y-95630000D02*
X148887500Y-94267500D01*
%TO.N,Net-(U4-b)*%
X189250000Y-92210000D02*
X185310000Y-88270000D01*
X189250000Y-100000000D02*
X189250000Y-92210000D01*
X159500000Y-100000000D02*
X189250000Y-100000000D01*
X153100000Y-102000000D02*
X157250000Y-102000000D01*
X157250000Y-102000000D02*
X157750000Y-101500000D01*
%TO.N,Net-(U5-B)*%
X144000000Y-94750000D02*
X144250000Y-94750000D01*
X147000000Y-99750000D02*
X144000000Y-96750000D01*
X147000000Y-100000000D02*
X147000000Y-99750000D01*
X150000000Y-102000000D02*
X149000000Y-102000000D01*
X147272500Y-91727500D02*
X148887500Y-91727500D01*
X149000000Y-102000000D02*
X148041765Y-101041765D01*
X144250000Y-94750000D02*
X147272500Y-91727500D01*
%TO.N,Net-(U5-C)*%
X144575000Y-93500000D02*
X148887500Y-89187500D01*
X152400000Y-103750000D02*
X155750000Y-103750000D01*
X144500000Y-93500000D02*
X144575000Y-93500000D01*
X148750000Y-97750000D02*
X145424265Y-94424265D01*
X150150000Y-106000000D02*
X152400000Y-103750000D01*
%TO.N,Net-(U4-c)*%
X161250000Y-100750000D02*
X188000000Y-100750000D01*
X188000000Y-93500000D02*
X185310000Y-90810000D01*
X188000000Y-99250000D02*
X188000000Y-93500000D01*
X153250000Y-106000000D02*
X155900000Y-106000000D01*
X159750000Y-102250000D02*
X161250000Y-100750000D01*
%TO.N,Net-(U3A-J)*%
X197750000Y-105600000D02*
X197750000Y-100750000D01*
X195850000Y-107500000D02*
X197750000Y-105600000D01*
X192250000Y-90750000D02*
X192310000Y-90810000D01*
X192310000Y-90810000D02*
X194190000Y-90810000D01*
X197750000Y-100750000D02*
X192250000Y-100750000D01*
X192250000Y-100750000D02*
X192250000Y-90750000D01*
X194190000Y-88270000D02*
X194190000Y-90810000D01*
%TO.N,Net-(U3B-J)*%
X204250000Y-98250000D02*
X204250000Y-93250000D01*
X204150000Y-93350000D02*
X201810000Y-93350000D01*
X195850000Y-103750000D02*
X196900000Y-103750000D01*
X196900000Y-103750000D02*
X197150000Y-103500000D01*
X198500000Y-102250000D02*
X202500000Y-98250000D01*
X204250000Y-93250000D02*
X204150000Y-93350000D01*
X202500000Y-98250000D02*
X204250000Y-98250000D01*
%TO.N,Net-(U5-D)*%
X142250000Y-94750000D02*
X147786500Y-89213500D01*
X152866500Y-85208500D02*
X153967500Y-84107500D01*
X148431450Y-85208500D02*
X152866500Y-85208500D01*
X145750000Y-99750000D02*
X142500000Y-96500000D01*
X149838840Y-107500000D02*
X147291765Y-104952925D01*
X147786500Y-85853450D02*
X148431450Y-85208500D01*
X164750000Y-107500000D02*
X159750000Y-107500000D01*
X147291765Y-104952925D02*
X147291765Y-101791765D01*
X147786500Y-89213500D02*
X147786500Y-85853450D01*
X142500000Y-96500000D02*
X142250000Y-96500000D01*
%TO.N,Net-(U4-d)*%
X184250000Y-99250000D02*
X187250000Y-99250000D01*
X169500000Y-105750000D02*
X183750000Y-105750000D01*
X167850000Y-107500000D02*
X167750000Y-107500000D01*
X184500000Y-104000000D02*
X184500000Y-103098530D01*
X184500000Y-103098530D02*
X184200735Y-102799265D01*
X167750000Y-107500000D02*
X169500000Y-105750000D01*
X187250000Y-95290000D02*
X185310000Y-93350000D01*
X187250000Y-99250000D02*
X187250000Y-95290000D01*
%TO.N,Net-(U4-BI)*%
X174500000Y-99250000D02*
X174500000Y-91460000D01*
X185750000Y-103500000D02*
X183600000Y-101350000D01*
X183600000Y-101350000D02*
X174500000Y-101350000D01*
X174500000Y-91460000D02*
X177690000Y-88270000D01*
%TO.N,Net-(U5-E)*%
X161900000Y-99400000D02*
X156500000Y-94000000D01*
X156500000Y-94000000D02*
X156500000Y-89180000D01*
X172000000Y-103250000D02*
X170100000Y-101350000D01*
X156500000Y-89180000D02*
X153967500Y-86647500D01*
%TO.N,Net-(U4-e)*%
X185310000Y-96190000D02*
X185310000Y-95890000D01*
X176400000Y-101950000D02*
X182250000Y-101950000D01*
X182250000Y-99250000D02*
X185310000Y-96190000D01*
X175100000Y-103250000D02*
X176400000Y-101950000D01*
%TO.N,Net-(U4-f)*%
X184600000Y-105500000D02*
X190750000Y-105500000D01*
X190750000Y-86090000D02*
X185310000Y-80650000D01*
X190750000Y-102750000D02*
X190750000Y-86090000D01*
X190750000Y-105500000D02*
X190750000Y-104100000D01*
X182600000Y-103500000D02*
X184600000Y-105500000D01*
%TO.N,Net-(U5-F)*%
X178000000Y-105000000D02*
X160750000Y-105000000D01*
X160500000Y-99250000D02*
X160475000Y-99225000D01*
X156000000Y-91750000D02*
X155750000Y-91750000D01*
X155750000Y-91750000D02*
X155727500Y-91727500D01*
X179500000Y-103500000D02*
X178000000Y-105000000D01*
X155727500Y-91727500D02*
X153967500Y-91727500D01*
X156000000Y-94750000D02*
X156000000Y-91750000D01*
%TO.N,Net-(U4-g)*%
X175100000Y-107750000D02*
X191250000Y-107750000D01*
X191250000Y-107750000D02*
X191550003Y-107449997D01*
X186440000Y-83190000D02*
X185310000Y-83190000D01*
X188750000Y-85500000D02*
X186440000Y-83190000D01*
X191550003Y-107449997D02*
X191550003Y-104100000D01*
X191500000Y-102250000D02*
X191500000Y-85500000D01*
X191500000Y-85500000D02*
X190500000Y-84500000D01*
%TO.N,Net-(U5-G)*%
X158299265Y-94950735D02*
X158299265Y-91449265D01*
X155030000Y-90250000D02*
X153967500Y-89187500D01*
X158299265Y-91449265D02*
X157100000Y-90250000D01*
X172000000Y-107750000D02*
X170500000Y-109250000D01*
X158250000Y-109250000D02*
X156874265Y-107874265D01*
X156750000Y-99000000D02*
X156750000Y-96500000D01*
X158351000Y-102649000D02*
X158351000Y-101251057D01*
X155750000Y-90250000D02*
X155030000Y-90250000D01*
X158351000Y-101251057D02*
X157699943Y-100600000D01*
X157699943Y-100600000D02*
X156750000Y-100600000D01*
%TO.N,Net-(U7-DIS)*%
X176000000Y-112250000D02*
X176000000Y-121250000D01*
X145065000Y-104480000D02*
X151835000Y-111250000D01*
X175750000Y-121000000D02*
X176000000Y-121250000D01*
X171500000Y-121000000D02*
X175750000Y-121000000D01*
X151835000Y-111250000D02*
X175000000Y-111250000D01*
X175000000Y-111250000D02*
X176000000Y-112250000D01*
%TO.N,555*%
X134900000Y-95200000D02*
X137850000Y-92250000D01*
X137445000Y-107020000D02*
X137480000Y-107020000D01*
X137500000Y-107000000D02*
X136000000Y-107000000D01*
X137480000Y-107020000D02*
X137500000Y-107000000D01*
X134900000Y-107000000D02*
X134900000Y-95200000D01*
X136000000Y-107000000D02*
X136100000Y-107000000D01*
%TO.N,Clock*%
X160000000Y-81750000D02*
X161690000Y-83440000D01*
X144250000Y-89900000D02*
X144250000Y-81750000D01*
X140150000Y-94000000D02*
X144250000Y-89900000D01*
X144250000Y-81750000D02*
X160000000Y-81750000D01*
%TO.N,Reset*%
X194190000Y-85730000D02*
X199270000Y-85730000D01*
X199270000Y-85730000D02*
X201810000Y-88270000D01*
%TD*%
M02*
