%TF.GenerationSoftware,KiCad,Pcbnew,9.0.3*%
%TF.CreationDate,2025-12-16T09:58:50+01:00*%
%TF.ProjectId,PTP_Ivan_Brajkovic_Project1AAA,5054505f-4976-4616-9e5f-4272616a6b6f,rev?*%
%TF.SameCoordinates,Original*%
%TF.FileFunction,Legend,Top*%
%TF.FilePolarity,Positive*%
%FSLAX46Y46*%
G04 Gerber Fmt 4.6, Leading zero omitted, Abs format (unit mm)*
G04 Created by KiCad (PCBNEW 9.0.3) date 2025-12-16 09:58:50*
%MOMM*%
%LPD*%
G01*
G04 APERTURE LIST*
%ADD10C,0.150000*%
%ADD11C,0.120000*%
G04 APERTURE END LIST*
D10*
X147857142Y-76624819D02*
X147523809Y-76148628D01*
X147285714Y-76624819D02*
X147285714Y-75624819D01*
X147285714Y-75624819D02*
X147666666Y-75624819D01*
X147666666Y-75624819D02*
X147761904Y-75672438D01*
X147761904Y-75672438D02*
X147809523Y-75720057D01*
X147809523Y-75720057D02*
X147857142Y-75815295D01*
X147857142Y-75815295D02*
X147857142Y-75958152D01*
X147857142Y-75958152D02*
X147809523Y-76053390D01*
X147809523Y-76053390D02*
X147761904Y-76101009D01*
X147761904Y-76101009D02*
X147666666Y-76148628D01*
X147666666Y-76148628D02*
X147285714Y-76148628D01*
X148809523Y-76624819D02*
X148238095Y-76624819D01*
X148523809Y-76624819D02*
X148523809Y-75624819D01*
X148523809Y-75624819D02*
X148428571Y-75767676D01*
X148428571Y-75767676D02*
X148333333Y-75862914D01*
X148333333Y-75862914D02*
X148238095Y-75910533D01*
X149428571Y-75624819D02*
X149523809Y-75624819D01*
X149523809Y-75624819D02*
X149619047Y-75672438D01*
X149619047Y-75672438D02*
X149666666Y-75720057D01*
X149666666Y-75720057D02*
X149714285Y-75815295D01*
X149714285Y-75815295D02*
X149761904Y-76005771D01*
X149761904Y-76005771D02*
X149761904Y-76243866D01*
X149761904Y-76243866D02*
X149714285Y-76434342D01*
X149714285Y-76434342D02*
X149666666Y-76529580D01*
X149666666Y-76529580D02*
X149619047Y-76577200D01*
X149619047Y-76577200D02*
X149523809Y-76624819D01*
X149523809Y-76624819D02*
X149428571Y-76624819D01*
X149428571Y-76624819D02*
X149333333Y-76577200D01*
X149333333Y-76577200D02*
X149285714Y-76529580D01*
X149285714Y-76529580D02*
X149238095Y-76434342D01*
X149238095Y-76434342D02*
X149190476Y-76243866D01*
X149190476Y-76243866D02*
X149190476Y-76005771D01*
X149190476Y-76005771D02*
X149238095Y-75815295D01*
X149238095Y-75815295D02*
X149285714Y-75720057D01*
X149285714Y-75720057D02*
X149333333Y-75672438D01*
X149333333Y-75672438D02*
X149428571Y-75624819D01*
X166133333Y-101704819D02*
X165800000Y-101228628D01*
X165561905Y-101704819D02*
X165561905Y-100704819D01*
X165561905Y-100704819D02*
X165942857Y-100704819D01*
X165942857Y-100704819D02*
X166038095Y-100752438D01*
X166038095Y-100752438D02*
X166085714Y-100800057D01*
X166085714Y-100800057D02*
X166133333Y-100895295D01*
X166133333Y-100895295D02*
X166133333Y-101038152D01*
X166133333Y-101038152D02*
X166085714Y-101133390D01*
X166085714Y-101133390D02*
X166038095Y-101181009D01*
X166038095Y-101181009D02*
X165942857Y-101228628D01*
X165942857Y-101228628D02*
X165561905Y-101228628D01*
X167038095Y-100704819D02*
X166561905Y-100704819D01*
X166561905Y-100704819D02*
X166514286Y-101181009D01*
X166514286Y-101181009D02*
X166561905Y-101133390D01*
X166561905Y-101133390D02*
X166657143Y-101085771D01*
X166657143Y-101085771D02*
X166895238Y-101085771D01*
X166895238Y-101085771D02*
X166990476Y-101133390D01*
X166990476Y-101133390D02*
X167038095Y-101181009D01*
X167038095Y-101181009D02*
X167085714Y-101276247D01*
X167085714Y-101276247D02*
X167085714Y-101514342D01*
X167085714Y-101514342D02*
X167038095Y-101609580D01*
X167038095Y-101609580D02*
X166990476Y-101657200D01*
X166990476Y-101657200D02*
X166895238Y-101704819D01*
X166895238Y-101704819D02*
X166657143Y-101704819D01*
X166657143Y-101704819D02*
X166561905Y-101657200D01*
X166561905Y-101657200D02*
X166514286Y-101609580D01*
X197238095Y-75234819D02*
X197238095Y-76044342D01*
X197238095Y-76044342D02*
X197285714Y-76139580D01*
X197285714Y-76139580D02*
X197333333Y-76187200D01*
X197333333Y-76187200D02*
X197428571Y-76234819D01*
X197428571Y-76234819D02*
X197619047Y-76234819D01*
X197619047Y-76234819D02*
X197714285Y-76187200D01*
X197714285Y-76187200D02*
X197761904Y-76139580D01*
X197761904Y-76139580D02*
X197809523Y-76044342D01*
X197809523Y-76044342D02*
X197809523Y-75234819D01*
X198190476Y-75234819D02*
X198809523Y-75234819D01*
X198809523Y-75234819D02*
X198476190Y-75615771D01*
X198476190Y-75615771D02*
X198619047Y-75615771D01*
X198619047Y-75615771D02*
X198714285Y-75663390D01*
X198714285Y-75663390D02*
X198761904Y-75711009D01*
X198761904Y-75711009D02*
X198809523Y-75806247D01*
X198809523Y-75806247D02*
X198809523Y-76044342D01*
X198809523Y-76044342D02*
X198761904Y-76139580D01*
X198761904Y-76139580D02*
X198714285Y-76187200D01*
X198714285Y-76187200D02*
X198619047Y-76234819D01*
X198619047Y-76234819D02*
X198333333Y-76234819D01*
X198333333Y-76234819D02*
X198238095Y-76187200D01*
X198238095Y-76187200D02*
X198190476Y-76139580D01*
X185988095Y-75954819D02*
X185988095Y-76764342D01*
X185988095Y-76764342D02*
X186035714Y-76859580D01*
X186035714Y-76859580D02*
X186083333Y-76907200D01*
X186083333Y-76907200D02*
X186178571Y-76954819D01*
X186178571Y-76954819D02*
X186369047Y-76954819D01*
X186369047Y-76954819D02*
X186464285Y-76907200D01*
X186464285Y-76907200D02*
X186511904Y-76859580D01*
X186511904Y-76859580D02*
X186559523Y-76764342D01*
X186559523Y-76764342D02*
X186559523Y-75954819D01*
X187559523Y-76954819D02*
X186988095Y-76954819D01*
X187273809Y-76954819D02*
X187273809Y-75954819D01*
X187273809Y-75954819D02*
X187178571Y-76097676D01*
X187178571Y-76097676D02*
X187083333Y-76192914D01*
X187083333Y-76192914D02*
X186988095Y-76240533D01*
X148283333Y-71874819D02*
X147950000Y-71398628D01*
X147711905Y-71874819D02*
X147711905Y-70874819D01*
X147711905Y-70874819D02*
X148092857Y-70874819D01*
X148092857Y-70874819D02*
X148188095Y-70922438D01*
X148188095Y-70922438D02*
X148235714Y-70970057D01*
X148235714Y-70970057D02*
X148283333Y-71065295D01*
X148283333Y-71065295D02*
X148283333Y-71208152D01*
X148283333Y-71208152D02*
X148235714Y-71303390D01*
X148235714Y-71303390D02*
X148188095Y-71351009D01*
X148188095Y-71351009D02*
X148092857Y-71398628D01*
X148092857Y-71398628D02*
X147711905Y-71398628D01*
X148759524Y-71874819D02*
X148950000Y-71874819D01*
X148950000Y-71874819D02*
X149045238Y-71827200D01*
X149045238Y-71827200D02*
X149092857Y-71779580D01*
X149092857Y-71779580D02*
X149188095Y-71636723D01*
X149188095Y-71636723D02*
X149235714Y-71446247D01*
X149235714Y-71446247D02*
X149235714Y-71065295D01*
X149235714Y-71065295D02*
X149188095Y-70970057D01*
X149188095Y-70970057D02*
X149140476Y-70922438D01*
X149140476Y-70922438D02*
X149045238Y-70874819D01*
X149045238Y-70874819D02*
X148854762Y-70874819D01*
X148854762Y-70874819D02*
X148759524Y-70922438D01*
X148759524Y-70922438D02*
X148711905Y-70970057D01*
X148711905Y-70970057D02*
X148664286Y-71065295D01*
X148664286Y-71065295D02*
X148664286Y-71303390D01*
X148664286Y-71303390D02*
X148711905Y-71398628D01*
X148711905Y-71398628D02*
X148759524Y-71446247D01*
X148759524Y-71446247D02*
X148854762Y-71493866D01*
X148854762Y-71493866D02*
X149045238Y-71493866D01*
X149045238Y-71493866D02*
X149140476Y-71446247D01*
X149140476Y-71446247D02*
X149188095Y-71398628D01*
X149188095Y-71398628D02*
X149235714Y-71303390D01*
X172907142Y-108204819D02*
X172573809Y-107728628D01*
X172335714Y-108204819D02*
X172335714Y-107204819D01*
X172335714Y-107204819D02*
X172716666Y-107204819D01*
X172716666Y-107204819D02*
X172811904Y-107252438D01*
X172811904Y-107252438D02*
X172859523Y-107300057D01*
X172859523Y-107300057D02*
X172907142Y-107395295D01*
X172907142Y-107395295D02*
X172907142Y-107538152D01*
X172907142Y-107538152D02*
X172859523Y-107633390D01*
X172859523Y-107633390D02*
X172811904Y-107681009D01*
X172811904Y-107681009D02*
X172716666Y-107728628D01*
X172716666Y-107728628D02*
X172335714Y-107728628D01*
X173859523Y-108204819D02*
X173288095Y-108204819D01*
X173573809Y-108204819D02*
X173573809Y-107204819D01*
X173573809Y-107204819D02*
X173478571Y-107347676D01*
X173478571Y-107347676D02*
X173383333Y-107442914D01*
X173383333Y-107442914D02*
X173288095Y-107490533D01*
X174430952Y-107633390D02*
X174335714Y-107585771D01*
X174335714Y-107585771D02*
X174288095Y-107538152D01*
X174288095Y-107538152D02*
X174240476Y-107442914D01*
X174240476Y-107442914D02*
X174240476Y-107395295D01*
X174240476Y-107395295D02*
X174288095Y-107300057D01*
X174288095Y-107300057D02*
X174335714Y-107252438D01*
X174335714Y-107252438D02*
X174430952Y-107204819D01*
X174430952Y-107204819D02*
X174621428Y-107204819D01*
X174621428Y-107204819D02*
X174716666Y-107252438D01*
X174716666Y-107252438D02*
X174764285Y-107300057D01*
X174764285Y-107300057D02*
X174811904Y-107395295D01*
X174811904Y-107395295D02*
X174811904Y-107442914D01*
X174811904Y-107442914D02*
X174764285Y-107538152D01*
X174764285Y-107538152D02*
X174716666Y-107585771D01*
X174716666Y-107585771D02*
X174621428Y-107633390D01*
X174621428Y-107633390D02*
X174430952Y-107633390D01*
X174430952Y-107633390D02*
X174335714Y-107681009D01*
X174335714Y-107681009D02*
X174288095Y-107728628D01*
X174288095Y-107728628D02*
X174240476Y-107823866D01*
X174240476Y-107823866D02*
X174240476Y-108014342D01*
X174240476Y-108014342D02*
X174288095Y-108109580D01*
X174288095Y-108109580D02*
X174335714Y-108157200D01*
X174335714Y-108157200D02*
X174430952Y-108204819D01*
X174430952Y-108204819D02*
X174621428Y-108204819D01*
X174621428Y-108204819D02*
X174716666Y-108157200D01*
X174716666Y-108157200D02*
X174764285Y-108109580D01*
X174764285Y-108109580D02*
X174811904Y-108014342D01*
X174811904Y-108014342D02*
X174811904Y-107823866D01*
X174811904Y-107823866D02*
X174764285Y-107728628D01*
X174764285Y-107728628D02*
X174716666Y-107681009D01*
X174716666Y-107681009D02*
X174621428Y-107633390D01*
X137666667Y-90707200D02*
X137809524Y-90754819D01*
X137809524Y-90754819D02*
X138047619Y-90754819D01*
X138047619Y-90754819D02*
X138142857Y-90707200D01*
X138142857Y-90707200D02*
X138190476Y-90659580D01*
X138190476Y-90659580D02*
X138238095Y-90564342D01*
X138238095Y-90564342D02*
X138238095Y-90469104D01*
X138238095Y-90469104D02*
X138190476Y-90373866D01*
X138190476Y-90373866D02*
X138142857Y-90326247D01*
X138142857Y-90326247D02*
X138047619Y-90278628D01*
X138047619Y-90278628D02*
X137857143Y-90231009D01*
X137857143Y-90231009D02*
X137761905Y-90183390D01*
X137761905Y-90183390D02*
X137714286Y-90135771D01*
X137714286Y-90135771D02*
X137666667Y-90040533D01*
X137666667Y-90040533D02*
X137666667Y-89945295D01*
X137666667Y-89945295D02*
X137714286Y-89850057D01*
X137714286Y-89850057D02*
X137761905Y-89802438D01*
X137761905Y-89802438D02*
X137857143Y-89754819D01*
X137857143Y-89754819D02*
X138095238Y-89754819D01*
X138095238Y-89754819D02*
X138238095Y-89802438D01*
X138571429Y-89754819D02*
X138809524Y-90754819D01*
X138809524Y-90754819D02*
X139000000Y-90040533D01*
X139000000Y-90040533D02*
X139190476Y-90754819D01*
X139190476Y-90754819D02*
X139428572Y-89754819D01*
X139761905Y-89850057D02*
X139809524Y-89802438D01*
X139809524Y-89802438D02*
X139904762Y-89754819D01*
X139904762Y-89754819D02*
X140142857Y-89754819D01*
X140142857Y-89754819D02*
X140238095Y-89802438D01*
X140238095Y-89802438D02*
X140285714Y-89850057D01*
X140285714Y-89850057D02*
X140333333Y-89945295D01*
X140333333Y-89945295D02*
X140333333Y-90040533D01*
X140333333Y-90040533D02*
X140285714Y-90183390D01*
X140285714Y-90183390D02*
X139714286Y-90754819D01*
X139714286Y-90754819D02*
X140333333Y-90754819D01*
X220494819Y-83243094D02*
X219494819Y-83243094D01*
X219494819Y-83243094D02*
X219494819Y-83004999D01*
X219494819Y-83004999D02*
X219542438Y-82862142D01*
X219542438Y-82862142D02*
X219637676Y-82766904D01*
X219637676Y-82766904D02*
X219732914Y-82719285D01*
X219732914Y-82719285D02*
X219923390Y-82671666D01*
X219923390Y-82671666D02*
X220066247Y-82671666D01*
X220066247Y-82671666D02*
X220256723Y-82719285D01*
X220256723Y-82719285D02*
X220351961Y-82766904D01*
X220351961Y-82766904D02*
X220447200Y-82862142D01*
X220447200Y-82862142D02*
X220494819Y-83004999D01*
X220494819Y-83004999D02*
X220494819Y-83243094D01*
X219590057Y-82290713D02*
X219542438Y-82243094D01*
X219542438Y-82243094D02*
X219494819Y-82147856D01*
X219494819Y-82147856D02*
X219494819Y-81909761D01*
X219494819Y-81909761D02*
X219542438Y-81814523D01*
X219542438Y-81814523D02*
X219590057Y-81766904D01*
X219590057Y-81766904D02*
X219685295Y-81719285D01*
X219685295Y-81719285D02*
X219780533Y-81719285D01*
X219780533Y-81719285D02*
X219923390Y-81766904D01*
X219923390Y-81766904D02*
X220494819Y-82338332D01*
X220494819Y-82338332D02*
X220494819Y-81719285D01*
X172907142Y-105534819D02*
X172573809Y-105058628D01*
X172335714Y-105534819D02*
X172335714Y-104534819D01*
X172335714Y-104534819D02*
X172716666Y-104534819D01*
X172716666Y-104534819D02*
X172811904Y-104582438D01*
X172811904Y-104582438D02*
X172859523Y-104630057D01*
X172859523Y-104630057D02*
X172907142Y-104725295D01*
X172907142Y-104725295D02*
X172907142Y-104868152D01*
X172907142Y-104868152D02*
X172859523Y-104963390D01*
X172859523Y-104963390D02*
X172811904Y-105011009D01*
X172811904Y-105011009D02*
X172716666Y-105058628D01*
X172716666Y-105058628D02*
X172335714Y-105058628D01*
X173859523Y-105534819D02*
X173288095Y-105534819D01*
X173573809Y-105534819D02*
X173573809Y-104534819D01*
X173573809Y-104534819D02*
X173478571Y-104677676D01*
X173478571Y-104677676D02*
X173383333Y-104772914D01*
X173383333Y-104772914D02*
X173288095Y-104820533D01*
X174716666Y-104534819D02*
X174526190Y-104534819D01*
X174526190Y-104534819D02*
X174430952Y-104582438D01*
X174430952Y-104582438D02*
X174383333Y-104630057D01*
X174383333Y-104630057D02*
X174288095Y-104772914D01*
X174288095Y-104772914D02*
X174240476Y-104963390D01*
X174240476Y-104963390D02*
X174240476Y-105344342D01*
X174240476Y-105344342D02*
X174288095Y-105439580D01*
X174288095Y-105439580D02*
X174335714Y-105487200D01*
X174335714Y-105487200D02*
X174430952Y-105534819D01*
X174430952Y-105534819D02*
X174621428Y-105534819D01*
X174621428Y-105534819D02*
X174716666Y-105487200D01*
X174716666Y-105487200D02*
X174764285Y-105439580D01*
X174764285Y-105439580D02*
X174811904Y-105344342D01*
X174811904Y-105344342D02*
X174811904Y-105106247D01*
X174811904Y-105106247D02*
X174764285Y-105011009D01*
X174764285Y-105011009D02*
X174716666Y-104963390D01*
X174716666Y-104963390D02*
X174621428Y-104915771D01*
X174621428Y-104915771D02*
X174430952Y-104915771D01*
X174430952Y-104915771D02*
X174335714Y-104963390D01*
X174335714Y-104963390D02*
X174288095Y-105011009D01*
X174288095Y-105011009D02*
X174240476Y-105106247D01*
X212333333Y-97824819D02*
X212000000Y-97348628D01*
X211761905Y-97824819D02*
X211761905Y-96824819D01*
X211761905Y-96824819D02*
X212142857Y-96824819D01*
X212142857Y-96824819D02*
X212238095Y-96872438D01*
X212238095Y-96872438D02*
X212285714Y-96920057D01*
X212285714Y-96920057D02*
X212333333Y-97015295D01*
X212333333Y-97015295D02*
X212333333Y-97158152D01*
X212333333Y-97158152D02*
X212285714Y-97253390D01*
X212285714Y-97253390D02*
X212238095Y-97301009D01*
X212238095Y-97301009D02*
X212142857Y-97348628D01*
X212142857Y-97348628D02*
X211761905Y-97348628D01*
X213190476Y-97158152D02*
X213190476Y-97824819D01*
X212952381Y-96777200D02*
X212714286Y-97491485D01*
X212714286Y-97491485D02*
X213333333Y-97491485D01*
X186657142Y-105784819D02*
X186323809Y-105308628D01*
X186085714Y-105784819D02*
X186085714Y-104784819D01*
X186085714Y-104784819D02*
X186466666Y-104784819D01*
X186466666Y-104784819D02*
X186561904Y-104832438D01*
X186561904Y-104832438D02*
X186609523Y-104880057D01*
X186609523Y-104880057D02*
X186657142Y-104975295D01*
X186657142Y-104975295D02*
X186657142Y-105118152D01*
X186657142Y-105118152D02*
X186609523Y-105213390D01*
X186609523Y-105213390D02*
X186561904Y-105261009D01*
X186561904Y-105261009D02*
X186466666Y-105308628D01*
X186466666Y-105308628D02*
X186085714Y-105308628D01*
X187609523Y-105784819D02*
X187038095Y-105784819D01*
X187323809Y-105784819D02*
X187323809Y-104784819D01*
X187323809Y-104784819D02*
X187228571Y-104927676D01*
X187228571Y-104927676D02*
X187133333Y-105022914D01*
X187133333Y-105022914D02*
X187038095Y-105070533D01*
X188514285Y-104784819D02*
X188038095Y-104784819D01*
X188038095Y-104784819D02*
X187990476Y-105261009D01*
X187990476Y-105261009D02*
X188038095Y-105213390D01*
X188038095Y-105213390D02*
X188133333Y-105165771D01*
X188133333Y-105165771D02*
X188371428Y-105165771D01*
X188371428Y-105165771D02*
X188466666Y-105213390D01*
X188466666Y-105213390D02*
X188514285Y-105261009D01*
X188514285Y-105261009D02*
X188561904Y-105356247D01*
X188561904Y-105356247D02*
X188561904Y-105594342D01*
X188561904Y-105594342D02*
X188514285Y-105689580D01*
X188514285Y-105689580D02*
X188466666Y-105737200D01*
X188466666Y-105737200D02*
X188371428Y-105784819D01*
X188371428Y-105784819D02*
X188133333Y-105784819D01*
X188133333Y-105784819D02*
X188038095Y-105737200D01*
X188038095Y-105737200D02*
X187990476Y-105689580D01*
X190416667Y-117407200D02*
X190559524Y-117454819D01*
X190559524Y-117454819D02*
X190797619Y-117454819D01*
X190797619Y-117454819D02*
X190892857Y-117407200D01*
X190892857Y-117407200D02*
X190940476Y-117359580D01*
X190940476Y-117359580D02*
X190988095Y-117264342D01*
X190988095Y-117264342D02*
X190988095Y-117169104D01*
X190988095Y-117169104D02*
X190940476Y-117073866D01*
X190940476Y-117073866D02*
X190892857Y-117026247D01*
X190892857Y-117026247D02*
X190797619Y-116978628D01*
X190797619Y-116978628D02*
X190607143Y-116931009D01*
X190607143Y-116931009D02*
X190511905Y-116883390D01*
X190511905Y-116883390D02*
X190464286Y-116835771D01*
X190464286Y-116835771D02*
X190416667Y-116740533D01*
X190416667Y-116740533D02*
X190416667Y-116645295D01*
X190416667Y-116645295D02*
X190464286Y-116550057D01*
X190464286Y-116550057D02*
X190511905Y-116502438D01*
X190511905Y-116502438D02*
X190607143Y-116454819D01*
X190607143Y-116454819D02*
X190845238Y-116454819D01*
X190845238Y-116454819D02*
X190988095Y-116502438D01*
X191321429Y-116454819D02*
X191559524Y-117454819D01*
X191559524Y-117454819D02*
X191750000Y-116740533D01*
X191750000Y-116740533D02*
X191940476Y-117454819D01*
X191940476Y-117454819D02*
X192178572Y-116454819D01*
X193083333Y-117454819D02*
X192511905Y-117454819D01*
X192797619Y-117454819D02*
X192797619Y-116454819D01*
X192797619Y-116454819D02*
X192702381Y-116597676D01*
X192702381Y-116597676D02*
X192607143Y-116692914D01*
X192607143Y-116692914D02*
X192511905Y-116740533D01*
X196375595Y-64054819D02*
X196375595Y-64864342D01*
X196375595Y-64864342D02*
X196423214Y-64959580D01*
X196423214Y-64959580D02*
X196470833Y-65007200D01*
X196470833Y-65007200D02*
X196566071Y-65054819D01*
X196566071Y-65054819D02*
X196756547Y-65054819D01*
X196756547Y-65054819D02*
X196851785Y-65007200D01*
X196851785Y-65007200D02*
X196899404Y-64959580D01*
X196899404Y-64959580D02*
X196947023Y-64864342D01*
X196947023Y-64864342D02*
X196947023Y-64054819D01*
X197851785Y-64054819D02*
X197661309Y-64054819D01*
X197661309Y-64054819D02*
X197566071Y-64102438D01*
X197566071Y-64102438D02*
X197518452Y-64150057D01*
X197518452Y-64150057D02*
X197423214Y-64292914D01*
X197423214Y-64292914D02*
X197375595Y-64483390D01*
X197375595Y-64483390D02*
X197375595Y-64864342D01*
X197375595Y-64864342D02*
X197423214Y-64959580D01*
X197423214Y-64959580D02*
X197470833Y-65007200D01*
X197470833Y-65007200D02*
X197566071Y-65054819D01*
X197566071Y-65054819D02*
X197756547Y-65054819D01*
X197756547Y-65054819D02*
X197851785Y-65007200D01*
X197851785Y-65007200D02*
X197899404Y-64959580D01*
X197899404Y-64959580D02*
X197947023Y-64864342D01*
X197947023Y-64864342D02*
X197947023Y-64626247D01*
X197947023Y-64626247D02*
X197899404Y-64531009D01*
X197899404Y-64531009D02*
X197851785Y-64483390D01*
X197851785Y-64483390D02*
X197756547Y-64435771D01*
X197756547Y-64435771D02*
X197566071Y-64435771D01*
X197566071Y-64435771D02*
X197470833Y-64483390D01*
X197470833Y-64483390D02*
X197423214Y-64531009D01*
X197423214Y-64531009D02*
X197375595Y-64626247D01*
X193657142Y-106204819D02*
X193323809Y-105728628D01*
X193085714Y-106204819D02*
X193085714Y-105204819D01*
X193085714Y-105204819D02*
X193466666Y-105204819D01*
X193466666Y-105204819D02*
X193561904Y-105252438D01*
X193561904Y-105252438D02*
X193609523Y-105300057D01*
X193609523Y-105300057D02*
X193657142Y-105395295D01*
X193657142Y-105395295D02*
X193657142Y-105538152D01*
X193657142Y-105538152D02*
X193609523Y-105633390D01*
X193609523Y-105633390D02*
X193561904Y-105681009D01*
X193561904Y-105681009D02*
X193466666Y-105728628D01*
X193466666Y-105728628D02*
X193085714Y-105728628D01*
X194609523Y-106204819D02*
X194038095Y-106204819D01*
X194323809Y-106204819D02*
X194323809Y-105204819D01*
X194323809Y-105204819D02*
X194228571Y-105347676D01*
X194228571Y-105347676D02*
X194133333Y-105442914D01*
X194133333Y-105442914D02*
X194038095Y-105490533D01*
X194990476Y-105300057D02*
X195038095Y-105252438D01*
X195038095Y-105252438D02*
X195133333Y-105204819D01*
X195133333Y-105204819D02*
X195371428Y-105204819D01*
X195371428Y-105204819D02*
X195466666Y-105252438D01*
X195466666Y-105252438D02*
X195514285Y-105300057D01*
X195514285Y-105300057D02*
X195561904Y-105395295D01*
X195561904Y-105395295D02*
X195561904Y-105490533D01*
X195561904Y-105490533D02*
X195514285Y-105633390D01*
X195514285Y-105633390D02*
X194942857Y-106204819D01*
X194942857Y-106204819D02*
X195561904Y-106204819D01*
X212333333Y-85824819D02*
X212000000Y-85348628D01*
X211761905Y-85824819D02*
X211761905Y-84824819D01*
X211761905Y-84824819D02*
X212142857Y-84824819D01*
X212142857Y-84824819D02*
X212238095Y-84872438D01*
X212238095Y-84872438D02*
X212285714Y-84920057D01*
X212285714Y-84920057D02*
X212333333Y-85015295D01*
X212333333Y-85015295D02*
X212333333Y-85158152D01*
X212333333Y-85158152D02*
X212285714Y-85253390D01*
X212285714Y-85253390D02*
X212238095Y-85301009D01*
X212238095Y-85301009D02*
X212142857Y-85348628D01*
X212142857Y-85348628D02*
X211761905Y-85348628D01*
X212714286Y-84920057D02*
X212761905Y-84872438D01*
X212761905Y-84872438D02*
X212857143Y-84824819D01*
X212857143Y-84824819D02*
X213095238Y-84824819D01*
X213095238Y-84824819D02*
X213190476Y-84872438D01*
X213190476Y-84872438D02*
X213238095Y-84920057D01*
X213238095Y-84920057D02*
X213285714Y-85015295D01*
X213285714Y-85015295D02*
X213285714Y-85110533D01*
X213285714Y-85110533D02*
X213238095Y-85253390D01*
X213238095Y-85253390D02*
X212666667Y-85824819D01*
X212666667Y-85824819D02*
X213285714Y-85824819D01*
X220494819Y-90468094D02*
X219494819Y-90468094D01*
X219494819Y-90468094D02*
X219494819Y-90229999D01*
X219494819Y-90229999D02*
X219542438Y-90087142D01*
X219542438Y-90087142D02*
X219637676Y-89991904D01*
X219637676Y-89991904D02*
X219732914Y-89944285D01*
X219732914Y-89944285D02*
X219923390Y-89896666D01*
X219923390Y-89896666D02*
X220066247Y-89896666D01*
X220066247Y-89896666D02*
X220256723Y-89944285D01*
X220256723Y-89944285D02*
X220351961Y-89991904D01*
X220351961Y-89991904D02*
X220447200Y-90087142D01*
X220447200Y-90087142D02*
X220494819Y-90229999D01*
X220494819Y-90229999D02*
X220494819Y-90468094D01*
X219494819Y-89563332D02*
X219494819Y-88944285D01*
X219494819Y-88944285D02*
X219875771Y-89277618D01*
X219875771Y-89277618D02*
X219875771Y-89134761D01*
X219875771Y-89134761D02*
X219923390Y-89039523D01*
X219923390Y-89039523D02*
X219971009Y-88991904D01*
X219971009Y-88991904D02*
X220066247Y-88944285D01*
X220066247Y-88944285D02*
X220304342Y-88944285D01*
X220304342Y-88944285D02*
X220399580Y-88991904D01*
X220399580Y-88991904D02*
X220447200Y-89039523D01*
X220447200Y-89039523D02*
X220494819Y-89134761D01*
X220494819Y-89134761D02*
X220494819Y-89420475D01*
X220494819Y-89420475D02*
X220447200Y-89515713D01*
X220447200Y-89515713D02*
X220399580Y-89563332D01*
X204166666Y-116707319D02*
X204166666Y-117421604D01*
X204166666Y-117421604D02*
X204119047Y-117564461D01*
X204119047Y-117564461D02*
X204023809Y-117659700D01*
X204023809Y-117659700D02*
X203880952Y-117707319D01*
X203880952Y-117707319D02*
X203785714Y-117707319D01*
X205166666Y-117707319D02*
X204595238Y-117707319D01*
X204880952Y-117707319D02*
X204880952Y-116707319D01*
X204880952Y-116707319D02*
X204785714Y-116850176D01*
X204785714Y-116850176D02*
X204690476Y-116945414D01*
X204690476Y-116945414D02*
X204595238Y-116993033D01*
X151383333Y-104284819D02*
X151050000Y-103808628D01*
X150811905Y-104284819D02*
X150811905Y-103284819D01*
X150811905Y-103284819D02*
X151192857Y-103284819D01*
X151192857Y-103284819D02*
X151288095Y-103332438D01*
X151288095Y-103332438D02*
X151335714Y-103380057D01*
X151335714Y-103380057D02*
X151383333Y-103475295D01*
X151383333Y-103475295D02*
X151383333Y-103618152D01*
X151383333Y-103618152D02*
X151335714Y-103713390D01*
X151335714Y-103713390D02*
X151288095Y-103761009D01*
X151288095Y-103761009D02*
X151192857Y-103808628D01*
X151192857Y-103808628D02*
X150811905Y-103808628D01*
X152240476Y-103284819D02*
X152050000Y-103284819D01*
X152050000Y-103284819D02*
X151954762Y-103332438D01*
X151954762Y-103332438D02*
X151907143Y-103380057D01*
X151907143Y-103380057D02*
X151811905Y-103522914D01*
X151811905Y-103522914D02*
X151764286Y-103713390D01*
X151764286Y-103713390D02*
X151764286Y-104094342D01*
X151764286Y-104094342D02*
X151811905Y-104189580D01*
X151811905Y-104189580D02*
X151859524Y-104237200D01*
X151859524Y-104237200D02*
X151954762Y-104284819D01*
X151954762Y-104284819D02*
X152145238Y-104284819D01*
X152145238Y-104284819D02*
X152240476Y-104237200D01*
X152240476Y-104237200D02*
X152288095Y-104189580D01*
X152288095Y-104189580D02*
X152335714Y-104094342D01*
X152335714Y-104094342D02*
X152335714Y-103856247D01*
X152335714Y-103856247D02*
X152288095Y-103761009D01*
X152288095Y-103761009D02*
X152240476Y-103713390D01*
X152240476Y-103713390D02*
X152145238Y-103665771D01*
X152145238Y-103665771D02*
X151954762Y-103665771D01*
X151954762Y-103665771D02*
X151859524Y-103713390D01*
X151859524Y-103713390D02*
X151811905Y-103761009D01*
X151811905Y-103761009D02*
X151764286Y-103856247D01*
X140493095Y-99064819D02*
X140493095Y-99874342D01*
X140493095Y-99874342D02*
X140540714Y-99969580D01*
X140540714Y-99969580D02*
X140588333Y-100017200D01*
X140588333Y-100017200D02*
X140683571Y-100064819D01*
X140683571Y-100064819D02*
X140874047Y-100064819D01*
X140874047Y-100064819D02*
X140969285Y-100017200D01*
X140969285Y-100017200D02*
X141016904Y-99969580D01*
X141016904Y-99969580D02*
X141064523Y-99874342D01*
X141064523Y-99874342D02*
X141064523Y-99064819D01*
X141445476Y-99064819D02*
X142112142Y-99064819D01*
X142112142Y-99064819D02*
X141683571Y-100064819D01*
X223238095Y-58004819D02*
X223238095Y-57004819D01*
X223238095Y-57481009D02*
X223809523Y-57481009D01*
X223809523Y-58004819D02*
X223809523Y-57004819D01*
X224190476Y-57004819D02*
X224809523Y-57004819D01*
X224809523Y-57004819D02*
X224476190Y-57385771D01*
X224476190Y-57385771D02*
X224619047Y-57385771D01*
X224619047Y-57385771D02*
X224714285Y-57433390D01*
X224714285Y-57433390D02*
X224761904Y-57481009D01*
X224761904Y-57481009D02*
X224809523Y-57576247D01*
X224809523Y-57576247D02*
X224809523Y-57814342D01*
X224809523Y-57814342D02*
X224761904Y-57909580D01*
X224761904Y-57909580D02*
X224714285Y-57957200D01*
X224714285Y-57957200D02*
X224619047Y-58004819D01*
X224619047Y-58004819D02*
X224333333Y-58004819D01*
X224333333Y-58004819D02*
X224238095Y-57957200D01*
X224238095Y-57957200D02*
X224190476Y-57909580D01*
X162788446Y-119109580D02*
X162740827Y-119157200D01*
X162740827Y-119157200D02*
X162597970Y-119204819D01*
X162597970Y-119204819D02*
X162502732Y-119204819D01*
X162502732Y-119204819D02*
X162359875Y-119157200D01*
X162359875Y-119157200D02*
X162264637Y-119061961D01*
X162264637Y-119061961D02*
X162217018Y-118966723D01*
X162217018Y-118966723D02*
X162169399Y-118776247D01*
X162169399Y-118776247D02*
X162169399Y-118633390D01*
X162169399Y-118633390D02*
X162217018Y-118442914D01*
X162217018Y-118442914D02*
X162264637Y-118347676D01*
X162264637Y-118347676D02*
X162359875Y-118252438D01*
X162359875Y-118252438D02*
X162502732Y-118204819D01*
X162502732Y-118204819D02*
X162597970Y-118204819D01*
X162597970Y-118204819D02*
X162740827Y-118252438D01*
X162740827Y-118252438D02*
X162788446Y-118300057D01*
X163740827Y-119204819D02*
X163169399Y-119204819D01*
X163455113Y-119204819D02*
X163455113Y-118204819D01*
X163455113Y-118204819D02*
X163359875Y-118347676D01*
X163359875Y-118347676D02*
X163264637Y-118442914D01*
X163264637Y-118442914D02*
X163169399Y-118490533D01*
X169357142Y-123454819D02*
X169023809Y-122978628D01*
X168785714Y-123454819D02*
X168785714Y-122454819D01*
X168785714Y-122454819D02*
X169166666Y-122454819D01*
X169166666Y-122454819D02*
X169261904Y-122502438D01*
X169261904Y-122502438D02*
X169309523Y-122550057D01*
X169309523Y-122550057D02*
X169357142Y-122645295D01*
X169357142Y-122645295D02*
X169357142Y-122788152D01*
X169357142Y-122788152D02*
X169309523Y-122883390D01*
X169309523Y-122883390D02*
X169261904Y-122931009D01*
X169261904Y-122931009D02*
X169166666Y-122978628D01*
X169166666Y-122978628D02*
X168785714Y-122978628D01*
X169738095Y-122550057D02*
X169785714Y-122502438D01*
X169785714Y-122502438D02*
X169880952Y-122454819D01*
X169880952Y-122454819D02*
X170119047Y-122454819D01*
X170119047Y-122454819D02*
X170214285Y-122502438D01*
X170214285Y-122502438D02*
X170261904Y-122550057D01*
X170261904Y-122550057D02*
X170309523Y-122645295D01*
X170309523Y-122645295D02*
X170309523Y-122740533D01*
X170309523Y-122740533D02*
X170261904Y-122883390D01*
X170261904Y-122883390D02*
X169690476Y-123454819D01*
X169690476Y-123454819D02*
X170309523Y-123454819D01*
X170928571Y-122454819D02*
X171023809Y-122454819D01*
X171023809Y-122454819D02*
X171119047Y-122502438D01*
X171119047Y-122502438D02*
X171166666Y-122550057D01*
X171166666Y-122550057D02*
X171214285Y-122645295D01*
X171214285Y-122645295D02*
X171261904Y-122835771D01*
X171261904Y-122835771D02*
X171261904Y-123073866D01*
X171261904Y-123073866D02*
X171214285Y-123264342D01*
X171214285Y-123264342D02*
X171166666Y-123359580D01*
X171166666Y-123359580D02*
X171119047Y-123407200D01*
X171119047Y-123407200D02*
X171023809Y-123454819D01*
X171023809Y-123454819D02*
X170928571Y-123454819D01*
X170928571Y-123454819D02*
X170833333Y-123407200D01*
X170833333Y-123407200D02*
X170785714Y-123359580D01*
X170785714Y-123359580D02*
X170738095Y-123264342D01*
X170738095Y-123264342D02*
X170690476Y-123073866D01*
X170690476Y-123073866D02*
X170690476Y-122835771D01*
X170690476Y-122835771D02*
X170738095Y-122645295D01*
X170738095Y-122645295D02*
X170785714Y-122550057D01*
X170785714Y-122550057D02*
X170833333Y-122502438D01*
X170833333Y-122502438D02*
X170928571Y-122454819D01*
X166011905Y-68484819D02*
X166011905Y-67484819D01*
X166011905Y-67484819D02*
X166250000Y-67484819D01*
X166250000Y-67484819D02*
X166392857Y-67532438D01*
X166392857Y-67532438D02*
X166488095Y-67627676D01*
X166488095Y-67627676D02*
X166535714Y-67722914D01*
X166535714Y-67722914D02*
X166583333Y-67913390D01*
X166583333Y-67913390D02*
X166583333Y-68056247D01*
X166583333Y-68056247D02*
X166535714Y-68246723D01*
X166535714Y-68246723D02*
X166488095Y-68341961D01*
X166488095Y-68341961D02*
X166392857Y-68437200D01*
X166392857Y-68437200D02*
X166250000Y-68484819D01*
X166250000Y-68484819D02*
X166011905Y-68484819D01*
X167440476Y-67818152D02*
X167440476Y-68484819D01*
X167202381Y-67437200D02*
X166964286Y-68151485D01*
X166964286Y-68151485D02*
X167583333Y-68151485D01*
X160138095Y-68854819D02*
X160138095Y-67854819D01*
X160709523Y-68854819D02*
X160280952Y-68283390D01*
X160709523Y-67854819D02*
X160138095Y-68426247D01*
X163959580Y-115354166D02*
X164007200Y-115401785D01*
X164007200Y-115401785D02*
X164054819Y-115544642D01*
X164054819Y-115544642D02*
X164054819Y-115639880D01*
X164054819Y-115639880D02*
X164007200Y-115782737D01*
X164007200Y-115782737D02*
X163911961Y-115877975D01*
X163911961Y-115877975D02*
X163816723Y-115925594D01*
X163816723Y-115925594D02*
X163626247Y-115973213D01*
X163626247Y-115973213D02*
X163483390Y-115973213D01*
X163483390Y-115973213D02*
X163292914Y-115925594D01*
X163292914Y-115925594D02*
X163197676Y-115877975D01*
X163197676Y-115877975D02*
X163102438Y-115782737D01*
X163102438Y-115782737D02*
X163054819Y-115639880D01*
X163054819Y-115639880D02*
X163054819Y-115544642D01*
X163054819Y-115544642D02*
X163102438Y-115401785D01*
X163102438Y-115401785D02*
X163150057Y-115354166D01*
X163054819Y-115020832D02*
X163054819Y-114401785D01*
X163054819Y-114401785D02*
X163435771Y-114735118D01*
X163435771Y-114735118D02*
X163435771Y-114592261D01*
X163435771Y-114592261D02*
X163483390Y-114497023D01*
X163483390Y-114497023D02*
X163531009Y-114449404D01*
X163531009Y-114449404D02*
X163626247Y-114401785D01*
X163626247Y-114401785D02*
X163864342Y-114401785D01*
X163864342Y-114401785D02*
X163959580Y-114449404D01*
X163959580Y-114449404D02*
X164007200Y-114497023D01*
X164007200Y-114497023D02*
X164054819Y-114592261D01*
X164054819Y-114592261D02*
X164054819Y-114877975D01*
X164054819Y-114877975D02*
X164007200Y-114973213D01*
X164007200Y-114973213D02*
X163959580Y-115020832D01*
X139238095Y-122004819D02*
X139238095Y-121004819D01*
X139238095Y-121481009D02*
X139809523Y-121481009D01*
X139809523Y-122004819D02*
X139809523Y-121004819D01*
X140238095Y-121100057D02*
X140285714Y-121052438D01*
X140285714Y-121052438D02*
X140380952Y-121004819D01*
X140380952Y-121004819D02*
X140619047Y-121004819D01*
X140619047Y-121004819D02*
X140714285Y-121052438D01*
X140714285Y-121052438D02*
X140761904Y-121100057D01*
X140761904Y-121100057D02*
X140809523Y-121195295D01*
X140809523Y-121195295D02*
X140809523Y-121290533D01*
X140809523Y-121290533D02*
X140761904Y-121433390D01*
X140761904Y-121433390D02*
X140190476Y-122004819D01*
X140190476Y-122004819D02*
X140809523Y-122004819D01*
X164738095Y-75484819D02*
X164738095Y-76294342D01*
X164738095Y-76294342D02*
X164785714Y-76389580D01*
X164785714Y-76389580D02*
X164833333Y-76437200D01*
X164833333Y-76437200D02*
X164928571Y-76484819D01*
X164928571Y-76484819D02*
X165119047Y-76484819D01*
X165119047Y-76484819D02*
X165214285Y-76437200D01*
X165214285Y-76437200D02*
X165261904Y-76389580D01*
X165261904Y-76389580D02*
X165309523Y-76294342D01*
X165309523Y-76294342D02*
X165309523Y-75484819D01*
X165738095Y-75580057D02*
X165785714Y-75532438D01*
X165785714Y-75532438D02*
X165880952Y-75484819D01*
X165880952Y-75484819D02*
X166119047Y-75484819D01*
X166119047Y-75484819D02*
X166214285Y-75532438D01*
X166214285Y-75532438D02*
X166261904Y-75580057D01*
X166261904Y-75580057D02*
X166309523Y-75675295D01*
X166309523Y-75675295D02*
X166309523Y-75770533D01*
X166309523Y-75770533D02*
X166261904Y-75913390D01*
X166261904Y-75913390D02*
X165690476Y-76484819D01*
X165690476Y-76484819D02*
X166309523Y-76484819D01*
X150665595Y-95881319D02*
X150665595Y-96690842D01*
X150665595Y-96690842D02*
X150713214Y-96786080D01*
X150713214Y-96786080D02*
X150760833Y-96833700D01*
X150760833Y-96833700D02*
X150856071Y-96881319D01*
X150856071Y-96881319D02*
X151046547Y-96881319D01*
X151046547Y-96881319D02*
X151141785Y-96833700D01*
X151141785Y-96833700D02*
X151189404Y-96786080D01*
X151189404Y-96786080D02*
X151237023Y-96690842D01*
X151237023Y-96690842D02*
X151237023Y-95881319D01*
X152189404Y-95881319D02*
X151713214Y-95881319D01*
X151713214Y-95881319D02*
X151665595Y-96357509D01*
X151665595Y-96357509D02*
X151713214Y-96309890D01*
X151713214Y-96309890D02*
X151808452Y-96262271D01*
X151808452Y-96262271D02*
X152046547Y-96262271D01*
X152046547Y-96262271D02*
X152141785Y-96309890D01*
X152141785Y-96309890D02*
X152189404Y-96357509D01*
X152189404Y-96357509D02*
X152237023Y-96452747D01*
X152237023Y-96452747D02*
X152237023Y-96690842D01*
X152237023Y-96690842D02*
X152189404Y-96786080D01*
X152189404Y-96786080D02*
X152141785Y-96833700D01*
X152141785Y-96833700D02*
X152046547Y-96881319D01*
X152046547Y-96881319D02*
X151808452Y-96881319D01*
X151808452Y-96881319D02*
X151713214Y-96833700D01*
X151713214Y-96833700D02*
X151665595Y-96786080D01*
X154759580Y-115416666D02*
X154807200Y-115464285D01*
X154807200Y-115464285D02*
X154854819Y-115607142D01*
X154854819Y-115607142D02*
X154854819Y-115702380D01*
X154854819Y-115702380D02*
X154807200Y-115845237D01*
X154807200Y-115845237D02*
X154711961Y-115940475D01*
X154711961Y-115940475D02*
X154616723Y-115988094D01*
X154616723Y-115988094D02*
X154426247Y-116035713D01*
X154426247Y-116035713D02*
X154283390Y-116035713D01*
X154283390Y-116035713D02*
X154092914Y-115988094D01*
X154092914Y-115988094D02*
X153997676Y-115940475D01*
X153997676Y-115940475D02*
X153902438Y-115845237D01*
X153902438Y-115845237D02*
X153854819Y-115702380D01*
X153854819Y-115702380D02*
X153854819Y-115607142D01*
X153854819Y-115607142D02*
X153902438Y-115464285D01*
X153902438Y-115464285D02*
X153950057Y-115416666D01*
X153854819Y-114511904D02*
X153854819Y-114988094D01*
X153854819Y-114988094D02*
X154331009Y-115035713D01*
X154331009Y-115035713D02*
X154283390Y-114988094D01*
X154283390Y-114988094D02*
X154235771Y-114892856D01*
X154235771Y-114892856D02*
X154235771Y-114654761D01*
X154235771Y-114654761D02*
X154283390Y-114559523D01*
X154283390Y-114559523D02*
X154331009Y-114511904D01*
X154331009Y-114511904D02*
X154426247Y-114464285D01*
X154426247Y-114464285D02*
X154664342Y-114464285D01*
X154664342Y-114464285D02*
X154759580Y-114511904D01*
X154759580Y-114511904D02*
X154807200Y-114559523D01*
X154807200Y-114559523D02*
X154854819Y-114654761D01*
X154854819Y-114654761D02*
X154854819Y-114892856D01*
X154854819Y-114892856D02*
X154807200Y-114988094D01*
X154807200Y-114988094D02*
X154759580Y-115035713D01*
X176907142Y-124034819D02*
X176573809Y-123558628D01*
X176335714Y-124034819D02*
X176335714Y-123034819D01*
X176335714Y-123034819D02*
X176716666Y-123034819D01*
X176716666Y-123034819D02*
X176811904Y-123082438D01*
X176811904Y-123082438D02*
X176859523Y-123130057D01*
X176859523Y-123130057D02*
X176907142Y-123225295D01*
X176907142Y-123225295D02*
X176907142Y-123368152D01*
X176907142Y-123368152D02*
X176859523Y-123463390D01*
X176859523Y-123463390D02*
X176811904Y-123511009D01*
X176811904Y-123511009D02*
X176716666Y-123558628D01*
X176716666Y-123558628D02*
X176335714Y-123558628D01*
X177859523Y-124034819D02*
X177288095Y-124034819D01*
X177573809Y-124034819D02*
X177573809Y-123034819D01*
X177573809Y-123034819D02*
X177478571Y-123177676D01*
X177478571Y-123177676D02*
X177383333Y-123272914D01*
X177383333Y-123272914D02*
X177288095Y-123320533D01*
X178335714Y-124034819D02*
X178526190Y-124034819D01*
X178526190Y-124034819D02*
X178621428Y-123987200D01*
X178621428Y-123987200D02*
X178669047Y-123939580D01*
X178669047Y-123939580D02*
X178764285Y-123796723D01*
X178764285Y-123796723D02*
X178811904Y-123606247D01*
X178811904Y-123606247D02*
X178811904Y-123225295D01*
X178811904Y-123225295D02*
X178764285Y-123130057D01*
X178764285Y-123130057D02*
X178716666Y-123082438D01*
X178716666Y-123082438D02*
X178621428Y-123034819D01*
X178621428Y-123034819D02*
X178430952Y-123034819D01*
X178430952Y-123034819D02*
X178335714Y-123082438D01*
X178335714Y-123082438D02*
X178288095Y-123130057D01*
X178288095Y-123130057D02*
X178240476Y-123225295D01*
X178240476Y-123225295D02*
X178240476Y-123463390D01*
X178240476Y-123463390D02*
X178288095Y-123558628D01*
X178288095Y-123558628D02*
X178335714Y-123606247D01*
X178335714Y-123606247D02*
X178430952Y-123653866D01*
X178430952Y-123653866D02*
X178621428Y-123653866D01*
X178621428Y-123653866D02*
X178716666Y-123606247D01*
X178716666Y-123606247D02*
X178764285Y-123558628D01*
X178764285Y-123558628D02*
X178811904Y-123463390D01*
X212333333Y-76084819D02*
X212000000Y-75608628D01*
X211761905Y-76084819D02*
X211761905Y-75084819D01*
X211761905Y-75084819D02*
X212142857Y-75084819D01*
X212142857Y-75084819D02*
X212238095Y-75132438D01*
X212238095Y-75132438D02*
X212285714Y-75180057D01*
X212285714Y-75180057D02*
X212333333Y-75275295D01*
X212333333Y-75275295D02*
X212333333Y-75418152D01*
X212333333Y-75418152D02*
X212285714Y-75513390D01*
X212285714Y-75513390D02*
X212238095Y-75561009D01*
X212238095Y-75561009D02*
X212142857Y-75608628D01*
X212142857Y-75608628D02*
X211761905Y-75608628D01*
X213285714Y-76084819D02*
X212714286Y-76084819D01*
X213000000Y-76084819D02*
X213000000Y-75084819D01*
X213000000Y-75084819D02*
X212904762Y-75227676D01*
X212904762Y-75227676D02*
X212809524Y-75322914D01*
X212809524Y-75322914D02*
X212714286Y-75370533D01*
X156783333Y-126624819D02*
X156450000Y-126148628D01*
X156211905Y-126624819D02*
X156211905Y-125624819D01*
X156211905Y-125624819D02*
X156592857Y-125624819D01*
X156592857Y-125624819D02*
X156688095Y-125672438D01*
X156688095Y-125672438D02*
X156735714Y-125720057D01*
X156735714Y-125720057D02*
X156783333Y-125815295D01*
X156783333Y-125815295D02*
X156783333Y-125958152D01*
X156783333Y-125958152D02*
X156735714Y-126053390D01*
X156735714Y-126053390D02*
X156688095Y-126101009D01*
X156688095Y-126101009D02*
X156592857Y-126148628D01*
X156592857Y-126148628D02*
X156211905Y-126148628D01*
X157116667Y-125624819D02*
X157783333Y-125624819D01*
X157783333Y-125624819D02*
X157354762Y-126624819D01*
X151533333Y-108284819D02*
X151200000Y-107808628D01*
X150961905Y-108284819D02*
X150961905Y-107284819D01*
X150961905Y-107284819D02*
X151342857Y-107284819D01*
X151342857Y-107284819D02*
X151438095Y-107332438D01*
X151438095Y-107332438D02*
X151485714Y-107380057D01*
X151485714Y-107380057D02*
X151533333Y-107475295D01*
X151533333Y-107475295D02*
X151533333Y-107618152D01*
X151533333Y-107618152D02*
X151485714Y-107713390D01*
X151485714Y-107713390D02*
X151438095Y-107761009D01*
X151438095Y-107761009D02*
X151342857Y-107808628D01*
X151342857Y-107808628D02*
X150961905Y-107808628D01*
X152104762Y-107713390D02*
X152009524Y-107665771D01*
X152009524Y-107665771D02*
X151961905Y-107618152D01*
X151961905Y-107618152D02*
X151914286Y-107522914D01*
X151914286Y-107522914D02*
X151914286Y-107475295D01*
X151914286Y-107475295D02*
X151961905Y-107380057D01*
X151961905Y-107380057D02*
X152009524Y-107332438D01*
X152009524Y-107332438D02*
X152104762Y-107284819D01*
X152104762Y-107284819D02*
X152295238Y-107284819D01*
X152295238Y-107284819D02*
X152390476Y-107332438D01*
X152390476Y-107332438D02*
X152438095Y-107380057D01*
X152438095Y-107380057D02*
X152485714Y-107475295D01*
X152485714Y-107475295D02*
X152485714Y-107522914D01*
X152485714Y-107522914D02*
X152438095Y-107618152D01*
X152438095Y-107618152D02*
X152390476Y-107665771D01*
X152390476Y-107665771D02*
X152295238Y-107713390D01*
X152295238Y-107713390D02*
X152104762Y-107713390D01*
X152104762Y-107713390D02*
X152009524Y-107761009D01*
X152009524Y-107761009D02*
X151961905Y-107808628D01*
X151961905Y-107808628D02*
X151914286Y-107903866D01*
X151914286Y-107903866D02*
X151914286Y-108094342D01*
X151914286Y-108094342D02*
X151961905Y-108189580D01*
X151961905Y-108189580D02*
X152009524Y-108237200D01*
X152009524Y-108237200D02*
X152104762Y-108284819D01*
X152104762Y-108284819D02*
X152295238Y-108284819D01*
X152295238Y-108284819D02*
X152390476Y-108237200D01*
X152390476Y-108237200D02*
X152438095Y-108189580D01*
X152438095Y-108189580D02*
X152485714Y-108094342D01*
X152485714Y-108094342D02*
X152485714Y-107903866D01*
X152485714Y-107903866D02*
X152438095Y-107808628D01*
X152438095Y-107808628D02*
X152390476Y-107761009D01*
X152390476Y-107761009D02*
X152295238Y-107713390D01*
X153083333Y-62604819D02*
X152607143Y-62604819D01*
X152607143Y-62604819D02*
X152607143Y-61604819D01*
X153940476Y-62604819D02*
X153369048Y-62604819D01*
X153654762Y-62604819D02*
X153654762Y-61604819D01*
X153654762Y-61604819D02*
X153559524Y-61747676D01*
X153559524Y-61747676D02*
X153464286Y-61842914D01*
X153464286Y-61842914D02*
X153369048Y-61890533D01*
X139238095Y-58504819D02*
X139238095Y-57504819D01*
X139238095Y-57981009D02*
X139809523Y-57981009D01*
X139809523Y-58504819D02*
X139809523Y-57504819D01*
X140809523Y-58504819D02*
X140238095Y-58504819D01*
X140523809Y-58504819D02*
X140523809Y-57504819D01*
X140523809Y-57504819D02*
X140428571Y-57647676D01*
X140428571Y-57647676D02*
X140333333Y-57742914D01*
X140333333Y-57742914D02*
X140238095Y-57790533D01*
X168807142Y-118954819D02*
X168473809Y-118478628D01*
X168235714Y-118954819D02*
X168235714Y-117954819D01*
X168235714Y-117954819D02*
X168616666Y-117954819D01*
X168616666Y-117954819D02*
X168711904Y-118002438D01*
X168711904Y-118002438D02*
X168759523Y-118050057D01*
X168759523Y-118050057D02*
X168807142Y-118145295D01*
X168807142Y-118145295D02*
X168807142Y-118288152D01*
X168807142Y-118288152D02*
X168759523Y-118383390D01*
X168759523Y-118383390D02*
X168711904Y-118431009D01*
X168711904Y-118431009D02*
X168616666Y-118478628D01*
X168616666Y-118478628D02*
X168235714Y-118478628D01*
X169759523Y-118954819D02*
X169188095Y-118954819D01*
X169473809Y-118954819D02*
X169473809Y-117954819D01*
X169473809Y-117954819D02*
X169378571Y-118097676D01*
X169378571Y-118097676D02*
X169283333Y-118192914D01*
X169283333Y-118192914D02*
X169188095Y-118240533D01*
X170092857Y-117954819D02*
X170711904Y-117954819D01*
X170711904Y-117954819D02*
X170378571Y-118335771D01*
X170378571Y-118335771D02*
X170521428Y-118335771D01*
X170521428Y-118335771D02*
X170616666Y-118383390D01*
X170616666Y-118383390D02*
X170664285Y-118431009D01*
X170664285Y-118431009D02*
X170711904Y-118526247D01*
X170711904Y-118526247D02*
X170711904Y-118764342D01*
X170711904Y-118764342D02*
X170664285Y-118859580D01*
X170664285Y-118859580D02*
X170616666Y-118907200D01*
X170616666Y-118907200D02*
X170521428Y-118954819D01*
X170521428Y-118954819D02*
X170235714Y-118954819D01*
X170235714Y-118954819D02*
X170140476Y-118907200D01*
X170140476Y-118907200D02*
X170092857Y-118859580D01*
X193657142Y-109954819D02*
X193323809Y-109478628D01*
X193085714Y-109954819D02*
X193085714Y-108954819D01*
X193085714Y-108954819D02*
X193466666Y-108954819D01*
X193466666Y-108954819D02*
X193561904Y-109002438D01*
X193561904Y-109002438D02*
X193609523Y-109050057D01*
X193609523Y-109050057D02*
X193657142Y-109145295D01*
X193657142Y-109145295D02*
X193657142Y-109288152D01*
X193657142Y-109288152D02*
X193609523Y-109383390D01*
X193609523Y-109383390D02*
X193561904Y-109431009D01*
X193561904Y-109431009D02*
X193466666Y-109478628D01*
X193466666Y-109478628D02*
X193085714Y-109478628D01*
X194609523Y-109954819D02*
X194038095Y-109954819D01*
X194323809Y-109954819D02*
X194323809Y-108954819D01*
X194323809Y-108954819D02*
X194228571Y-109097676D01*
X194228571Y-109097676D02*
X194133333Y-109192914D01*
X194133333Y-109192914D02*
X194038095Y-109240533D01*
X195561904Y-109954819D02*
X194990476Y-109954819D01*
X195276190Y-109954819D02*
X195276190Y-108954819D01*
X195276190Y-108954819D02*
X195180952Y-109097676D01*
X195180952Y-109097676D02*
X195085714Y-109192914D01*
X195085714Y-109192914D02*
X194990476Y-109240533D01*
X149009580Y-115479166D02*
X149057200Y-115526785D01*
X149057200Y-115526785D02*
X149104819Y-115669642D01*
X149104819Y-115669642D02*
X149104819Y-115764880D01*
X149104819Y-115764880D02*
X149057200Y-115907737D01*
X149057200Y-115907737D02*
X148961961Y-116002975D01*
X148961961Y-116002975D02*
X148866723Y-116050594D01*
X148866723Y-116050594D02*
X148676247Y-116098213D01*
X148676247Y-116098213D02*
X148533390Y-116098213D01*
X148533390Y-116098213D02*
X148342914Y-116050594D01*
X148342914Y-116050594D02*
X148247676Y-116002975D01*
X148247676Y-116002975D02*
X148152438Y-115907737D01*
X148152438Y-115907737D02*
X148104819Y-115764880D01*
X148104819Y-115764880D02*
X148104819Y-115669642D01*
X148104819Y-115669642D02*
X148152438Y-115526785D01*
X148152438Y-115526785D02*
X148200057Y-115479166D01*
X148438152Y-114622023D02*
X149104819Y-114622023D01*
X148057200Y-114860118D02*
X148771485Y-115098213D01*
X148771485Y-115098213D02*
X148771485Y-114479166D01*
X151333333Y-127359580D02*
X151285714Y-127407200D01*
X151285714Y-127407200D02*
X151142857Y-127454819D01*
X151142857Y-127454819D02*
X151047619Y-127454819D01*
X151047619Y-127454819D02*
X150904762Y-127407200D01*
X150904762Y-127407200D02*
X150809524Y-127311961D01*
X150809524Y-127311961D02*
X150761905Y-127216723D01*
X150761905Y-127216723D02*
X150714286Y-127026247D01*
X150714286Y-127026247D02*
X150714286Y-126883390D01*
X150714286Y-126883390D02*
X150761905Y-126692914D01*
X150761905Y-126692914D02*
X150809524Y-126597676D01*
X150809524Y-126597676D02*
X150904762Y-126502438D01*
X150904762Y-126502438D02*
X151047619Y-126454819D01*
X151047619Y-126454819D02*
X151142857Y-126454819D01*
X151142857Y-126454819D02*
X151285714Y-126502438D01*
X151285714Y-126502438D02*
X151333333Y-126550057D01*
X151714286Y-126550057D02*
X151761905Y-126502438D01*
X151761905Y-126502438D02*
X151857143Y-126454819D01*
X151857143Y-126454819D02*
X152095238Y-126454819D01*
X152095238Y-126454819D02*
X152190476Y-126502438D01*
X152190476Y-126502438D02*
X152238095Y-126550057D01*
X152238095Y-126550057D02*
X152285714Y-126645295D01*
X152285714Y-126645295D02*
X152285714Y-126740533D01*
X152285714Y-126740533D02*
X152238095Y-126883390D01*
X152238095Y-126883390D02*
X151666667Y-127454819D01*
X151666667Y-127454819D02*
X152285714Y-127454819D01*
X165657142Y-109784819D02*
X165323809Y-109308628D01*
X165085714Y-109784819D02*
X165085714Y-108784819D01*
X165085714Y-108784819D02*
X165466666Y-108784819D01*
X165466666Y-108784819D02*
X165561904Y-108832438D01*
X165561904Y-108832438D02*
X165609523Y-108880057D01*
X165609523Y-108880057D02*
X165657142Y-108975295D01*
X165657142Y-108975295D02*
X165657142Y-109118152D01*
X165657142Y-109118152D02*
X165609523Y-109213390D01*
X165609523Y-109213390D02*
X165561904Y-109261009D01*
X165561904Y-109261009D02*
X165466666Y-109308628D01*
X165466666Y-109308628D02*
X165085714Y-109308628D01*
X166609523Y-109784819D02*
X166038095Y-109784819D01*
X166323809Y-109784819D02*
X166323809Y-108784819D01*
X166323809Y-108784819D02*
X166228571Y-108927676D01*
X166228571Y-108927676D02*
X166133333Y-109022914D01*
X166133333Y-109022914D02*
X166038095Y-109070533D01*
X167466666Y-109118152D02*
X167466666Y-109784819D01*
X167228571Y-108737200D02*
X166990476Y-109451485D01*
X166990476Y-109451485D02*
X167609523Y-109451485D01*
X220494819Y-76008094D02*
X219494819Y-76008094D01*
X219494819Y-76008094D02*
X219494819Y-75769999D01*
X219494819Y-75769999D02*
X219542438Y-75627142D01*
X219542438Y-75627142D02*
X219637676Y-75531904D01*
X219637676Y-75531904D02*
X219732914Y-75484285D01*
X219732914Y-75484285D02*
X219923390Y-75436666D01*
X219923390Y-75436666D02*
X220066247Y-75436666D01*
X220066247Y-75436666D02*
X220256723Y-75484285D01*
X220256723Y-75484285D02*
X220351961Y-75531904D01*
X220351961Y-75531904D02*
X220447200Y-75627142D01*
X220447200Y-75627142D02*
X220494819Y-75769999D01*
X220494819Y-75769999D02*
X220494819Y-76008094D01*
X220494819Y-74484285D02*
X220494819Y-75055713D01*
X220494819Y-74769999D02*
X219494819Y-74769999D01*
X219494819Y-74769999D02*
X219637676Y-74865237D01*
X219637676Y-74865237D02*
X219732914Y-74960475D01*
X219732914Y-74960475D02*
X219780533Y-75055713D01*
X180407142Y-105784819D02*
X180073809Y-105308628D01*
X179835714Y-105784819D02*
X179835714Y-104784819D01*
X179835714Y-104784819D02*
X180216666Y-104784819D01*
X180216666Y-104784819D02*
X180311904Y-104832438D01*
X180311904Y-104832438D02*
X180359523Y-104880057D01*
X180359523Y-104880057D02*
X180407142Y-104975295D01*
X180407142Y-104975295D02*
X180407142Y-105118152D01*
X180407142Y-105118152D02*
X180359523Y-105213390D01*
X180359523Y-105213390D02*
X180311904Y-105261009D01*
X180311904Y-105261009D02*
X180216666Y-105308628D01*
X180216666Y-105308628D02*
X179835714Y-105308628D01*
X181359523Y-105784819D02*
X180788095Y-105784819D01*
X181073809Y-105784819D02*
X181073809Y-104784819D01*
X181073809Y-104784819D02*
X180978571Y-104927676D01*
X180978571Y-104927676D02*
X180883333Y-105022914D01*
X180883333Y-105022914D02*
X180788095Y-105070533D01*
X181692857Y-104784819D02*
X182359523Y-104784819D01*
X182359523Y-104784819D02*
X181930952Y-105784819D01*
X220494819Y-98243094D02*
X219494819Y-98243094D01*
X219494819Y-98243094D02*
X219494819Y-98004999D01*
X219494819Y-98004999D02*
X219542438Y-97862142D01*
X219542438Y-97862142D02*
X219637676Y-97766904D01*
X219637676Y-97766904D02*
X219732914Y-97719285D01*
X219732914Y-97719285D02*
X219923390Y-97671666D01*
X219923390Y-97671666D02*
X220066247Y-97671666D01*
X220066247Y-97671666D02*
X220256723Y-97719285D01*
X220256723Y-97719285D02*
X220351961Y-97766904D01*
X220351961Y-97766904D02*
X220447200Y-97862142D01*
X220447200Y-97862142D02*
X220494819Y-98004999D01*
X220494819Y-98004999D02*
X220494819Y-98243094D01*
X219494819Y-96766904D02*
X219494819Y-97243094D01*
X219494819Y-97243094D02*
X219971009Y-97290713D01*
X219971009Y-97290713D02*
X219923390Y-97243094D01*
X219923390Y-97243094D02*
X219875771Y-97147856D01*
X219875771Y-97147856D02*
X219875771Y-96909761D01*
X219875771Y-96909761D02*
X219923390Y-96814523D01*
X219923390Y-96814523D02*
X219971009Y-96766904D01*
X219971009Y-96766904D02*
X220066247Y-96719285D01*
X220066247Y-96719285D02*
X220304342Y-96719285D01*
X220304342Y-96719285D02*
X220399580Y-96766904D01*
X220399580Y-96766904D02*
X220447200Y-96814523D01*
X220447200Y-96814523D02*
X220494819Y-96909761D01*
X220494819Y-96909761D02*
X220494819Y-97147856D01*
X220494819Y-97147856D02*
X220447200Y-97243094D01*
X220447200Y-97243094D02*
X220399580Y-97290713D01*
X212333333Y-91824819D02*
X212000000Y-91348628D01*
X211761905Y-91824819D02*
X211761905Y-90824819D01*
X211761905Y-90824819D02*
X212142857Y-90824819D01*
X212142857Y-90824819D02*
X212238095Y-90872438D01*
X212238095Y-90872438D02*
X212285714Y-90920057D01*
X212285714Y-90920057D02*
X212333333Y-91015295D01*
X212333333Y-91015295D02*
X212333333Y-91158152D01*
X212333333Y-91158152D02*
X212285714Y-91253390D01*
X212285714Y-91253390D02*
X212238095Y-91301009D01*
X212238095Y-91301009D02*
X212142857Y-91348628D01*
X212142857Y-91348628D02*
X211761905Y-91348628D01*
X212666667Y-90824819D02*
X213285714Y-90824819D01*
X213285714Y-90824819D02*
X212952381Y-91205771D01*
X212952381Y-91205771D02*
X213095238Y-91205771D01*
X213095238Y-91205771D02*
X213190476Y-91253390D01*
X213190476Y-91253390D02*
X213238095Y-91301009D01*
X213238095Y-91301009D02*
X213285714Y-91396247D01*
X213285714Y-91396247D02*
X213285714Y-91634342D01*
X213285714Y-91634342D02*
X213238095Y-91729580D01*
X213238095Y-91729580D02*
X213190476Y-91777200D01*
X213190476Y-91777200D02*
X213095238Y-91824819D01*
X213095238Y-91824819D02*
X212809524Y-91824819D01*
X212809524Y-91824819D02*
X212714286Y-91777200D01*
X212714286Y-91777200D02*
X212666667Y-91729580D01*
X223238095Y-122004819D02*
X223238095Y-121004819D01*
X223238095Y-121481009D02*
X223809523Y-121481009D01*
X223809523Y-122004819D02*
X223809523Y-121004819D01*
X224714285Y-121338152D02*
X224714285Y-122004819D01*
X224476190Y-120957200D02*
X224238095Y-121671485D01*
X224238095Y-121671485D02*
X224857142Y-121671485D01*
X180738095Y-75234819D02*
X180738095Y-76044342D01*
X180738095Y-76044342D02*
X180785714Y-76139580D01*
X180785714Y-76139580D02*
X180833333Y-76187200D01*
X180833333Y-76187200D02*
X180928571Y-76234819D01*
X180928571Y-76234819D02*
X181119047Y-76234819D01*
X181119047Y-76234819D02*
X181214285Y-76187200D01*
X181214285Y-76187200D02*
X181261904Y-76139580D01*
X181261904Y-76139580D02*
X181309523Y-76044342D01*
X181309523Y-76044342D02*
X181309523Y-75234819D01*
X182214285Y-75568152D02*
X182214285Y-76234819D01*
X181976190Y-75187200D02*
X181738095Y-75901485D01*
X181738095Y-75901485D02*
X182357142Y-75901485D01*
D11*
%TO.C,R10*%
X147772936Y-77090000D02*
X149227064Y-77090000D01*
X147772936Y-78910000D02*
X149227064Y-78910000D01*
%TO.C,R5*%
X167027064Y-102340000D02*
X165572936Y-102340000D01*
X167027064Y-104160000D02*
X165572936Y-104160000D01*
%TO.C,U3*%
X195750000Y-76780000D02*
X195750000Y-97220000D01*
X195750000Y-97220000D02*
X200250000Y-97220000D01*
X197000000Y-76780000D02*
X195750000Y-76780000D01*
X200250000Y-76780000D02*
X199000000Y-76780000D01*
X200250000Y-97220000D02*
X200250000Y-76780000D01*
X192750000Y-76720000D02*
X203250000Y-76720000D01*
X203250000Y-97280000D01*
X192750000Y-97280000D01*
X192750000Y-76720000D01*
X199000000Y-76780000D02*
G75*
G02*
X197000000Y-76780000I-1000000J0D01*
G01*
%TO.C,U1*%
X180595000Y-62860000D02*
X180595000Y-73140000D01*
X180595000Y-73140000D02*
X182245000Y-73140000D01*
X184245000Y-73140000D02*
X185895000Y-73140000D01*
X185895000Y-62860000D02*
X180595000Y-62860000D01*
X185895000Y-73140000D02*
X185895000Y-62860000D01*
X182245000Y-73140000D02*
G75*
G02*
X184245000Y-73140000I1000000J0D01*
G01*
%TO.C,R9*%
X147722936Y-72340000D02*
X149177064Y-72340000D01*
X147722936Y-74160000D02*
X149177064Y-74160000D01*
%TO.C,R18*%
X174277064Y-106840000D02*
X172822936Y-106840000D01*
X174277064Y-108660000D02*
X172822936Y-108660000D01*
%TO.C,SW2*%
X137640000Y-91190000D02*
X140360000Y-91190000D01*
X137640000Y-91450000D02*
X137100000Y-91450000D01*
X137640000Y-91450000D02*
X137640000Y-91200000D01*
X137640000Y-93020000D02*
X137640000Y-94980000D01*
X137640000Y-96810000D02*
X137640000Y-96550000D01*
X140350000Y-96810000D02*
X137650000Y-96810000D01*
X140360000Y-91190000D02*
X140360000Y-93200000D01*
X140360000Y-94800000D02*
X140360000Y-96810000D01*
%TO.C,D2*%
X222455000Y-85065000D02*
X225545000Y-85065000D01*
X222455170Y-85065000D02*
G75*
G02*
X224000000Y-79515000I1544830J2560000D01*
G01*
X224000000Y-79515000D02*
G75*
G02*
X225544830Y-85065000I0J-2990000D01*
G01*
X226500000Y-82505000D02*
G75*
G02*
X221500000Y-82505000I-2500000J0D01*
G01*
X221500000Y-82505000D02*
G75*
G02*
X226500000Y-82505000I2500000J0D01*
G01*
%TO.C,R16*%
X174277064Y-102340000D02*
X172822936Y-102340000D01*
X174277064Y-104160000D02*
X172822936Y-104160000D01*
%TO.C,R4*%
X208460000Y-95000000D02*
X209230000Y-95000000D01*
X216540000Y-95000000D02*
X215770000Y-95000000D01*
X215770000Y-96370000D02*
X209230000Y-96370000D01*
X209230000Y-93630000D01*
X215770000Y-93630000D01*
X215770000Y-96370000D01*
%TO.C,R15*%
X188027064Y-102590000D02*
X186572936Y-102590000D01*
X188027064Y-104410000D02*
X186572936Y-104410000D01*
%TO.C,SW1*%
X188250000Y-120500000D02*
X188250000Y-122000000D01*
X189500000Y-124500000D02*
X194000000Y-124500000D01*
X194000000Y-118000000D02*
X189500000Y-118000000D01*
X195250000Y-122000000D02*
X195250000Y-120500000D01*
%TO.C,U6*%
X197137500Y-65440000D02*
X196337500Y-65440000D01*
X197137500Y-65440000D02*
X197937500Y-65440000D01*
X197137500Y-68560000D02*
X196337500Y-68560000D01*
X197137500Y-68560000D02*
X197937500Y-68560000D01*
X195837500Y-65490000D02*
X195597500Y-65160000D01*
X196077500Y-65160000D01*
X195837500Y-65490000D01*
G36*
X195837500Y-65490000D02*
G01*
X195597500Y-65160000D01*
X196077500Y-65160000D01*
X195837500Y-65490000D01*
G37*
%TO.C,R12*%
X193572936Y-102840000D02*
X195027064Y-102840000D01*
X193572936Y-104660000D02*
X195027064Y-104660000D01*
%TO.C,R2*%
X208460000Y-83000000D02*
X209230000Y-83000000D01*
X216540000Y-83000000D02*
X215770000Y-83000000D01*
X215770000Y-84370000D02*
X209230000Y-84370000D01*
X209230000Y-81630000D01*
X215770000Y-81630000D01*
X215770000Y-84370000D01*
%TO.C,D3*%
X222455000Y-92290000D02*
X225545000Y-92290000D01*
X222455170Y-92290000D02*
G75*
G02*
X224000000Y-86740000I1544830J2560000D01*
G01*
X224000000Y-86740000D02*
G75*
G02*
X225544830Y-92290000I0J-2990000D01*
G01*
X226500000Y-89730000D02*
G75*
G02*
X221500000Y-89730000I-2500000J0D01*
G01*
X221500000Y-89730000D02*
G75*
G02*
X226500000Y-89730000I2500000J0D01*
G01*
%TO.C,J1*%
X199380000Y-105512500D02*
X206700000Y-105512500D01*
X199380000Y-116252500D02*
X199380000Y-105512500D01*
X207300000Y-105512500D02*
X209620000Y-105512500D01*
X209620000Y-105512500D02*
X209620000Y-116252500D01*
X209620000Y-107632500D02*
X199380000Y-107632500D01*
X209620000Y-111632500D02*
X199380000Y-111632500D01*
X209620000Y-112632500D02*
X199380000Y-112632500D01*
X209620000Y-116252500D02*
X199380000Y-116252500D01*
X207000000Y-105512500D02*
X206560000Y-104902500D01*
X207440000Y-104902500D01*
X207000000Y-105512500D01*
G36*
X207000000Y-105512500D02*
G01*
X206560000Y-104902500D01*
X207440000Y-104902500D01*
X207000000Y-105512500D01*
G37*
%TO.C,R6*%
X152277064Y-101090000D02*
X150822936Y-101090000D01*
X152277064Y-102910000D02*
X150822936Y-102910000D01*
%TO.C,U7*%
X138605000Y-100610000D02*
X138605000Y-110890000D01*
X138605000Y-110890000D02*
X143905000Y-110890000D01*
X140255000Y-100610000D02*
X138605000Y-100610000D01*
X143905000Y-100610000D02*
X142255000Y-100610000D01*
X143905000Y-110890000D02*
X143905000Y-100610000D01*
X142255000Y-100610000D02*
G75*
G02*
X140255000Y-100610000I-1000000J0D01*
G01*
%TO.C,C1*%
X159855113Y-123533000D02*
X159855113Y-122967000D01*
X159895113Y-123767000D02*
X159895113Y-122733000D01*
X159935113Y-123927000D02*
X159935113Y-122573000D01*
X159975113Y-124055000D02*
X159975113Y-122445000D01*
X160015113Y-124164000D02*
X160015113Y-122336000D01*
X160055113Y-124261000D02*
X160055113Y-122239000D01*
X160095113Y-124348000D02*
X160095113Y-122152000D01*
X160135113Y-124427000D02*
X160135113Y-122073000D01*
X160175113Y-124501000D02*
X160175113Y-121999000D01*
X160215113Y-124569000D02*
X160215113Y-121931000D01*
X160255113Y-124633000D02*
X160255113Y-121867000D01*
X160295113Y-124693000D02*
X160295113Y-121807000D01*
X160335113Y-124749000D02*
X160335113Y-121751000D01*
X160375113Y-124803000D02*
X160375113Y-121697000D01*
X160415113Y-124854000D02*
X160415113Y-121646000D01*
X160455113Y-122210000D02*
X160455113Y-121598000D01*
X160455113Y-124902000D02*
X160455113Y-124290000D01*
X160495113Y-122210000D02*
X160495113Y-121551000D01*
X160495113Y-124949000D02*
X160495113Y-124290000D01*
X160535113Y-122210000D02*
X160535113Y-121507000D01*
X160535113Y-124993000D02*
X160535113Y-124290000D01*
X160575113Y-122210000D02*
X160575113Y-121465000D01*
X160575113Y-125035000D02*
X160575113Y-124290000D01*
X160615113Y-122210000D02*
X160615113Y-121425000D01*
X160615113Y-125075000D02*
X160615113Y-124290000D01*
X160655113Y-122210000D02*
X160655113Y-121386000D01*
X160655113Y-125114000D02*
X160655113Y-124290000D01*
X160695113Y-122210000D02*
X160695113Y-121349000D01*
X160695113Y-125151000D02*
X160695113Y-124290000D01*
X160735113Y-122210000D02*
X160735113Y-121314000D01*
X160735113Y-125186000D02*
X160735113Y-124290000D01*
X160775113Y-122210000D02*
X160775113Y-121280000D01*
X160775113Y-125220000D02*
X160775113Y-124290000D01*
X160815113Y-122210000D02*
X160815113Y-121247000D01*
X160815113Y-125253000D02*
X160815113Y-124290000D01*
X160855113Y-122210000D02*
X160855113Y-121215000D01*
X160855113Y-125285000D02*
X160855113Y-124290000D01*
X160895113Y-122210000D02*
X160895113Y-121185000D01*
X160895113Y-125315000D02*
X160895113Y-124290000D01*
X160935113Y-122210000D02*
X160935113Y-121156000D01*
X160935113Y-125344000D02*
X160935113Y-124290000D01*
X160975113Y-122210000D02*
X160975113Y-121128000D01*
X160975113Y-125372000D02*
X160975113Y-124290000D01*
X161015113Y-122210000D02*
X161015113Y-121101000D01*
X161015113Y-125399000D02*
X161015113Y-124290000D01*
X161055113Y-122210000D02*
X161055113Y-121075000D01*
X161055113Y-125425000D02*
X161055113Y-124290000D01*
X161095113Y-122210000D02*
X161095113Y-121051000D01*
X161095113Y-125449000D02*
X161095113Y-124290000D01*
X161135113Y-122210000D02*
X161135113Y-121027000D01*
X161135113Y-125473000D02*
X161135113Y-124290000D01*
X161175113Y-122210000D02*
X161175113Y-121004000D01*
X161175113Y-125496000D02*
X161175113Y-124290000D01*
X161215113Y-122210000D02*
X161215113Y-120982000D01*
X161215113Y-125518000D02*
X161215113Y-124290000D01*
X161255113Y-122210000D02*
X161255113Y-120961000D01*
X161255113Y-125539000D02*
X161255113Y-124290000D01*
X161295113Y-122210000D02*
X161295113Y-120941000D01*
X161295113Y-125559000D02*
X161295113Y-124290000D01*
X161335113Y-122210000D02*
X161335113Y-120921000D01*
X161335113Y-125579000D02*
X161335113Y-124290000D01*
X161375113Y-122210000D02*
X161375113Y-120903000D01*
X161375113Y-125597000D02*
X161375113Y-124290000D01*
X161415113Y-122210000D02*
X161415113Y-120885000D01*
X161415113Y-125615000D02*
X161415113Y-124290000D01*
X161455113Y-122210000D02*
X161455113Y-120868000D01*
X161455113Y-125632000D02*
X161455113Y-124290000D01*
X161495113Y-122210000D02*
X161495113Y-120852000D01*
X161495113Y-125648000D02*
X161495113Y-124290000D01*
X161535113Y-122210000D02*
X161535113Y-120837000D01*
X161535113Y-125663000D02*
X161535113Y-124290000D01*
X161575113Y-122210000D02*
X161575113Y-120822000D01*
X161575113Y-125678000D02*
X161575113Y-124290000D01*
X161615113Y-122210000D02*
X161615113Y-120808000D01*
X161615113Y-125692000D02*
X161615113Y-124290000D01*
X161655113Y-122210000D02*
X161655113Y-120795000D01*
X161655113Y-125705000D02*
X161655113Y-124290000D01*
X161695113Y-122210000D02*
X161695113Y-120783000D01*
X161695113Y-125717000D02*
X161695113Y-124290000D01*
X161735113Y-122210000D02*
X161735113Y-120771000D01*
X161735113Y-125729000D02*
X161735113Y-124290000D01*
X161775113Y-122210000D02*
X161775113Y-120760000D01*
X161775113Y-125740000D02*
X161775113Y-124290000D01*
X161815113Y-122210000D02*
X161815113Y-120749000D01*
X161815113Y-125751000D02*
X161815113Y-124290000D01*
X161855113Y-122210000D02*
X161855113Y-120740000D01*
X161855113Y-125760000D02*
X161855113Y-124290000D01*
X161895113Y-122210000D02*
X161895113Y-120731000D01*
X161895113Y-125769000D02*
X161895113Y-124290000D01*
X161935113Y-122210000D02*
X161935113Y-120722000D01*
X161935113Y-125778000D02*
X161935113Y-124290000D01*
X161975113Y-122210000D02*
X161975113Y-120714000D01*
X161975113Y-125786000D02*
X161975113Y-124290000D01*
X162015113Y-122210000D02*
X162015113Y-120707000D01*
X162015113Y-125793000D02*
X162015113Y-124290000D01*
X162055113Y-122210000D02*
X162055113Y-120701000D01*
X162055113Y-125799000D02*
X162055113Y-124290000D01*
X162095113Y-122210000D02*
X162095113Y-120695000D01*
X162095113Y-125805000D02*
X162095113Y-124290000D01*
X162135113Y-122210000D02*
X162135113Y-120690000D01*
X162135113Y-125810000D02*
X162135113Y-124290000D01*
X162175113Y-122210000D02*
X162175113Y-120685000D01*
X162175113Y-125815000D02*
X162175113Y-124290000D01*
X162215113Y-122210000D02*
X162215113Y-120681000D01*
X162215113Y-125819000D02*
X162215113Y-124290000D01*
X162255113Y-122210000D02*
X162255113Y-120678000D01*
X162255113Y-125822000D02*
X162255113Y-124290000D01*
X162295113Y-122210000D02*
X162295113Y-120675000D01*
X162295113Y-125825000D02*
X162295113Y-124290000D01*
X162335113Y-122210000D02*
X162335113Y-120673000D01*
X162335113Y-125827000D02*
X162335113Y-124290000D01*
X162375113Y-122210000D02*
X162375113Y-120671000D01*
X162375113Y-125829000D02*
X162375113Y-124290000D01*
X162415113Y-122210000D02*
X162415113Y-120670000D01*
X162415113Y-125830000D02*
X162415113Y-124290000D01*
X162455113Y-122210000D02*
X162455113Y-120670000D01*
X162455113Y-125830000D02*
X162455113Y-124290000D01*
X165009888Y-124975000D02*
X165009888Y-124475000D01*
X165259888Y-124725000D02*
X164759888Y-124725000D01*
X165075113Y-123250000D02*
G75*
G02*
X159835113Y-123250000I-2620000J0D01*
G01*
X159835113Y-123250000D02*
G75*
G02*
X165075113Y-123250000I2620000J0D01*
G01*
%TO.C,R20*%
X170677064Y-120090000D02*
X169222936Y-120090000D01*
X170677064Y-121910000D02*
X169222936Y-121910000D01*
%TO.C,D4*%
X161740000Y-70500000D02*
X164030000Y-70500000D01*
X164810000Y-69030000D02*
X164810000Y-71970000D01*
X164930000Y-69030000D02*
X164930000Y-71970000D01*
X165050000Y-69030000D02*
X165050000Y-71970000D01*
X171760000Y-70500000D02*
X169470000Y-70500000D01*
X164030000Y-69030000D02*
X169470000Y-69030000D01*
X169470000Y-71970000D01*
X164030000Y-71970000D01*
X164030000Y-69030000D01*
%TO.C,C3*%
X160840000Y-114476248D02*
X160840000Y-115898752D01*
X162660000Y-114476248D02*
X162660000Y-115898752D01*
%TO.C,U2*%
X163250000Y-77030000D02*
X163250000Y-97470000D01*
X163250000Y-97470000D02*
X167750000Y-97470000D01*
X164500000Y-77030000D02*
X163250000Y-77030000D01*
X167750000Y-77030000D02*
X166500000Y-77030000D01*
X167750000Y-97470000D02*
X167750000Y-77030000D01*
X160250000Y-76970000D02*
X170750000Y-76970000D01*
X170750000Y-97530000D01*
X160250000Y-97530000D01*
X160250000Y-76970000D01*
X166500000Y-77030000D02*
G75*
G02*
X164500000Y-77030000I-1000000J0D01*
G01*
D10*
%TO.C,U5*%
X147617500Y-82837500D02*
X147617500Y-95537500D01*
X147617500Y-95537500D02*
X155237500Y-95537500D01*
X155237500Y-82837500D02*
X147617500Y-82837500D01*
X155237500Y-95537500D02*
X155237500Y-82837500D01*
D11*
X155597500Y-94267500D02*
X155597500Y-95897500D01*
X155597500Y-95897500D02*
X153967500Y-95897500D01*
%TO.C,C5*%
X155340000Y-115961252D02*
X155340000Y-114538748D01*
X157160000Y-115961252D02*
X157160000Y-114538748D01*
%TO.C,R19*%
X178277064Y-120340000D02*
X176822936Y-120340000D01*
X178277064Y-122160000D02*
X176822936Y-122160000D01*
%TO.C,R1*%
X208460000Y-78000000D02*
X209230000Y-78000000D01*
X216540000Y-78000000D02*
X215770000Y-78000000D01*
X209230000Y-76630000D02*
X215770000Y-76630000D01*
X215770000Y-79370000D01*
X209230000Y-79370000D01*
X209230000Y-76630000D01*
%TO.C,R7*%
X156222936Y-127090000D02*
X157677064Y-127090000D01*
X156222936Y-128910000D02*
X157677064Y-128910000D01*
%TO.C,R8*%
X152427064Y-105090000D02*
X150972936Y-105090000D01*
X152427064Y-106910000D02*
X150972936Y-106910000D01*
%TO.C,L1*%
X156970000Y-67000000D02*
G75*
G02*
X149530000Y-67000000I-3720000J0D01*
G01*
X149530000Y-67000000D02*
G75*
G02*
X156970000Y-67000000I3720000J0D01*
G01*
%TO.C,R13*%
X169222936Y-115590000D02*
X170677064Y-115590000D01*
X169222936Y-117410000D02*
X170677064Y-117410000D01*
%TO.C,R11*%
X193572936Y-106590000D02*
X195027064Y-106590000D01*
X193572936Y-108410000D02*
X195027064Y-108410000D01*
%TO.C,C4*%
X149590000Y-116023752D02*
X149590000Y-114601248D01*
X151410000Y-116023752D02*
X151410000Y-114601248D01*
%TO.C,C2*%
X148900000Y-123533000D02*
X148900000Y-122967000D01*
X148940000Y-123767000D02*
X148940000Y-122733000D01*
X148980000Y-123927000D02*
X148980000Y-122573000D01*
X149020000Y-124055000D02*
X149020000Y-122445000D01*
X149060000Y-124164000D02*
X149060000Y-122336000D01*
X149100000Y-124261000D02*
X149100000Y-122239000D01*
X149140000Y-124348000D02*
X149140000Y-122152000D01*
X149180000Y-124427000D02*
X149180000Y-122073000D01*
X149220000Y-124501000D02*
X149220000Y-121999000D01*
X149260000Y-124569000D02*
X149260000Y-121931000D01*
X149300000Y-124633000D02*
X149300000Y-121867000D01*
X149340000Y-124693000D02*
X149340000Y-121807000D01*
X149380000Y-124749000D02*
X149380000Y-121751000D01*
X149420000Y-124803000D02*
X149420000Y-121697000D01*
X149460000Y-124854000D02*
X149460000Y-121646000D01*
X149500000Y-122210000D02*
X149500000Y-121598000D01*
X149500000Y-124902000D02*
X149500000Y-124290000D01*
X149540000Y-122210000D02*
X149540000Y-121551000D01*
X149540000Y-124949000D02*
X149540000Y-124290000D01*
X149580000Y-122210000D02*
X149580000Y-121507000D01*
X149580000Y-124993000D02*
X149580000Y-124290000D01*
X149620000Y-122210000D02*
X149620000Y-121465000D01*
X149620000Y-125035000D02*
X149620000Y-124290000D01*
X149660000Y-122210000D02*
X149660000Y-121425000D01*
X149660000Y-125075000D02*
X149660000Y-124290000D01*
X149700000Y-122210000D02*
X149700000Y-121386000D01*
X149700000Y-125114000D02*
X149700000Y-124290000D01*
X149740000Y-122210000D02*
X149740000Y-121349000D01*
X149740000Y-125151000D02*
X149740000Y-124290000D01*
X149780000Y-122210000D02*
X149780000Y-121314000D01*
X149780000Y-125186000D02*
X149780000Y-124290000D01*
X149820000Y-122210000D02*
X149820000Y-121280000D01*
X149820000Y-125220000D02*
X149820000Y-124290000D01*
X149860000Y-122210000D02*
X149860000Y-121247000D01*
X149860000Y-125253000D02*
X149860000Y-124290000D01*
X149900000Y-122210000D02*
X149900000Y-121215000D01*
X149900000Y-125285000D02*
X149900000Y-124290000D01*
X149940000Y-122210000D02*
X149940000Y-121185000D01*
X149940000Y-125315000D02*
X149940000Y-124290000D01*
X149980000Y-122210000D02*
X149980000Y-121156000D01*
X149980000Y-125344000D02*
X149980000Y-124290000D01*
X150020000Y-122210000D02*
X150020000Y-121128000D01*
X150020000Y-125372000D02*
X150020000Y-124290000D01*
X150060000Y-122210000D02*
X150060000Y-121101000D01*
X150060000Y-125399000D02*
X150060000Y-124290000D01*
X150100000Y-122210000D02*
X150100000Y-121075000D01*
X150100000Y-125425000D02*
X150100000Y-124290000D01*
X150140000Y-122210000D02*
X150140000Y-121051000D01*
X150140000Y-125449000D02*
X150140000Y-124290000D01*
X150180000Y-122210000D02*
X150180000Y-121027000D01*
X150180000Y-125473000D02*
X150180000Y-124290000D01*
X150220000Y-122210000D02*
X150220000Y-121004000D01*
X150220000Y-125496000D02*
X150220000Y-124290000D01*
X150260000Y-122210000D02*
X150260000Y-120982000D01*
X150260000Y-125518000D02*
X150260000Y-124290000D01*
X150300000Y-122210000D02*
X150300000Y-120961000D01*
X150300000Y-125539000D02*
X150300000Y-124290000D01*
X150340000Y-122210000D02*
X150340000Y-120941000D01*
X150340000Y-125559000D02*
X150340000Y-124290000D01*
X150380000Y-122210000D02*
X150380000Y-120921000D01*
X150380000Y-125579000D02*
X150380000Y-124290000D01*
X150420000Y-122210000D02*
X150420000Y-120903000D01*
X150420000Y-125597000D02*
X150420000Y-124290000D01*
X150460000Y-122210000D02*
X150460000Y-120885000D01*
X150460000Y-125615000D02*
X150460000Y-124290000D01*
X150500000Y-122210000D02*
X150500000Y-120868000D01*
X150500000Y-125632000D02*
X150500000Y-124290000D01*
X150540000Y-122210000D02*
X150540000Y-120852000D01*
X150540000Y-125648000D02*
X150540000Y-124290000D01*
X150580000Y-122210000D02*
X150580000Y-120837000D01*
X150580000Y-125663000D02*
X150580000Y-124290000D01*
X150620000Y-122210000D02*
X150620000Y-120822000D01*
X150620000Y-125678000D02*
X150620000Y-124290000D01*
X150660000Y-122210000D02*
X150660000Y-120808000D01*
X150660000Y-125692000D02*
X150660000Y-124290000D01*
X150700000Y-122210000D02*
X150700000Y-120795000D01*
X150700000Y-125705000D02*
X150700000Y-124290000D01*
X150740000Y-122210000D02*
X150740000Y-120783000D01*
X150740000Y-125717000D02*
X150740000Y-124290000D01*
X150780000Y-122210000D02*
X150780000Y-120771000D01*
X150780000Y-125729000D02*
X150780000Y-124290000D01*
X150820000Y-122210000D02*
X150820000Y-120760000D01*
X150820000Y-125740000D02*
X150820000Y-124290000D01*
X150860000Y-122210000D02*
X150860000Y-120749000D01*
X150860000Y-125751000D02*
X150860000Y-124290000D01*
X150900000Y-122210000D02*
X150900000Y-120740000D01*
X150900000Y-125760000D02*
X150900000Y-124290000D01*
X150940000Y-122210000D02*
X150940000Y-120731000D01*
X150940000Y-125769000D02*
X150940000Y-124290000D01*
X150980000Y-122210000D02*
X150980000Y-120722000D01*
X150980000Y-125778000D02*
X150980000Y-124290000D01*
X151020000Y-122210000D02*
X151020000Y-120714000D01*
X151020000Y-125786000D02*
X151020000Y-124290000D01*
X151060000Y-122210000D02*
X151060000Y-120707000D01*
X151060000Y-125793000D02*
X151060000Y-124290000D01*
X151100000Y-122210000D02*
X151100000Y-120701000D01*
X151100000Y-125799000D02*
X151100000Y-124290000D01*
X151140000Y-122210000D02*
X151140000Y-120695000D01*
X151140000Y-125805000D02*
X151140000Y-124290000D01*
X151180000Y-122210000D02*
X151180000Y-120690000D01*
X151180000Y-125810000D02*
X151180000Y-124290000D01*
X151220000Y-122210000D02*
X151220000Y-120685000D01*
X151220000Y-125815000D02*
X151220000Y-124290000D01*
X151260000Y-122210000D02*
X151260000Y-120681000D01*
X151260000Y-125819000D02*
X151260000Y-124290000D01*
X151300000Y-122210000D02*
X151300000Y-120678000D01*
X151300000Y-125822000D02*
X151300000Y-124290000D01*
X151340000Y-122210000D02*
X151340000Y-120675000D01*
X151340000Y-125825000D02*
X151340000Y-124290000D01*
X151380000Y-122210000D02*
X151380000Y-120673000D01*
X151380000Y-125827000D02*
X151380000Y-124290000D01*
X151420000Y-122210000D02*
X151420000Y-120671000D01*
X151420000Y-125829000D02*
X151420000Y-124290000D01*
X151460000Y-122210000D02*
X151460000Y-120670000D01*
X151460000Y-125830000D02*
X151460000Y-124290000D01*
X151500000Y-122210000D02*
X151500000Y-120670000D01*
X151500000Y-125830000D02*
X151500000Y-124290000D01*
X154054775Y-124975000D02*
X154054775Y-124475000D01*
X154304775Y-124725000D02*
X153804775Y-124725000D01*
X154120000Y-123250000D02*
G75*
G02*
X148880000Y-123250000I-2620000J0D01*
G01*
X148880000Y-123250000D02*
G75*
G02*
X154120000Y-123250000I2620000J0D01*
G01*
%TO.C,R14*%
X167027064Y-106590000D02*
X165572936Y-106590000D01*
X167027064Y-108410000D02*
X165572936Y-108410000D01*
%TO.C,D1*%
X222455000Y-77830000D02*
X225545000Y-77830000D01*
X222455170Y-77830000D02*
G75*
G02*
X224000000Y-72280000I1544830J2560000D01*
G01*
X224000000Y-72280000D02*
G75*
G02*
X225544830Y-77830000I0J-2990000D01*
G01*
X226500000Y-75270000D02*
G75*
G02*
X221500000Y-75270000I-2500000J0D01*
G01*
X221500000Y-75270000D02*
G75*
G02*
X226500000Y-75270000I2500000J0D01*
G01*
%TO.C,R17*%
X181777064Y-102590000D02*
X180322936Y-102590000D01*
X181777064Y-104410000D02*
X180322936Y-104410000D01*
%TO.C,D5*%
X222455000Y-100065000D02*
X225545000Y-100065000D01*
X222455170Y-100065000D02*
G75*
G02*
X224000000Y-94515000I1544830J2560000D01*
G01*
X224000000Y-94515000D02*
G75*
G02*
X225544830Y-100065000I0J-2990000D01*
G01*
X226500000Y-97505000D02*
G75*
G02*
X221500000Y-97505000I-2500000J0D01*
G01*
X221500000Y-97505000D02*
G75*
G02*
X226500000Y-97505000I2500000J0D01*
G01*
%TO.C,R3*%
X208460000Y-89000000D02*
X209230000Y-89000000D01*
X216540000Y-89000000D02*
X215770000Y-89000000D01*
X215770000Y-90370000D02*
X209230000Y-90370000D01*
X209230000Y-87630000D01*
X215770000Y-87630000D01*
X215770000Y-90370000D01*
%TO.C,U4*%
X179250000Y-76780000D02*
X179250000Y-97220000D01*
X179250000Y-97220000D02*
X183750000Y-97220000D01*
X180500000Y-76780000D02*
X179250000Y-76780000D01*
X183750000Y-76780000D02*
X182500000Y-76780000D01*
X183750000Y-97220000D02*
X183750000Y-76780000D01*
X176250000Y-76720000D02*
X186750000Y-76720000D01*
X186750000Y-97280000D01*
X176250000Y-97280000D01*
X176250000Y-76720000D01*
X182500000Y-76780000D02*
G75*
G02*
X180500000Y-76780000I-1000000J0D01*
G01*
%TD*%
M02*
