M48
; DRILL file {KiCad 9.0.3} date 2025-12-16T09:57:57+0100
; FORMAT={-:-/ absolute / metric / decimal}
; #@! TF.CreationDate,2025-12-16T09:57:57+01:00
; #@! TF.GenerationSoftware,Kicad,Pcbnew,9.0.3
; #@! TF.FileFunction,MixedPlating,1,2
FMAT,2
METRIC
; #@! TA.AperFunction,Plated,PTH,ViaDrill
T1C0.300
; #@! TA.AperFunction,Plated,PTH,ComponentDrill
T2C0.800
; #@! TA.AperFunction,Plated,PTH,ComponentDrill
T3C0.900
; #@! TA.AperFunction,Plated,PTH,ComponentDrill
T4C1.100
; #@! TA.AperFunction,Plated,PTH,ComponentDrill
T5C1.200
; #@! TA.AperFunction,Plated,PTH,ComponentDrill
T6C1.400
; #@! TA.AperFunction,NonPlated,NPTH,ComponentDrill
T7C5.500
%
G90
G05
T1
X134.9Y-107.0
X136.1Y-107.0
X138.25Y-112.75
X138.25Y-114.75
X141.75Y-105.08
X142.25Y-94.75
X142.25Y-96.5
X142.78Y-103.937
X144.0Y-94.75
X144.0Y-96.75
X144.5Y-93.5
X145.25Y-80.75
X145.424Y-94.424
X145.5Y-82.75
X145.75Y-99.75
X147.0Y-100.0
X147.292Y-101.792
X148.042Y-101.042
X148.25Y-119.75
X148.5Y-81.0
X148.658Y-98.658
X149.0Y-82.35
X149.577Y-99.577
X149.608Y-97.708
X150.0Y-119.75
X150.358Y-96.958
X150.5Y-98.7
X151.25Y-84.5
X151.25Y-86.25
X151.4Y-97.9
X152.0Y-79.0
X152.75Y-112.75
X152.75Y-114.5
X153.5Y-79.0
X154.0Y-77.0
X154.7Y-100.65
X155.0Y-78.0
X155.4Y-101.35
X155.675Y-99.325
X155.7Y-102.7
X155.75Y-90.25
X156.0Y-98.5
X156.0Y-107.5
X156.75Y-96.5
X156.75Y-99.0
X156.8Y-104.1
X156.96Y-105.86
X157.0Y-76.6
X157.0Y-81.0
X157.1Y-90.25
X157.5Y-69.0
X157.5Y-82.5
X157.5Y-98.5
X157.75Y-101.5
X158.0Y-75.0
X158.25Y-109.25
X158.299Y-94.951
X158.3Y-103.7
X158.5Y-120.25
X158.7Y-98.5
X159.0Y-67.5
X159.0Y-110.5
X159.0Y-112.75
X159.0Y-117.75
X159.5Y-74.4
X159.5Y-77.0
X159.5Y-100.0
X159.7Y-102.3
X159.75Y-107.5
X160.25Y-109.25
X160.475Y-99.225
X160.5Y-127.25
X160.8Y-102.2
X162.0Y-98.5
X162.5Y-127.25
X162.6Y-99.35
X162.695Y-101.598
X163.5Y-102.0
X163.8Y-99.35
X166.0Y-127.25
X169.0Y-127.25
X169.75Y-99.25
X169.75Y-102.0
X171.4Y-76.0
X171.4Y-80.5
X171.4Y-86.5
X171.4Y-87.5
X172.0Y-89.5
X172.6Y-80.5
X172.6Y-87.5
X173.0Y-90.0
X173.5Y-75.0
X173.5Y-98.25
X173.9Y-93.0
X174.5Y-99.25
X174.5Y-101.35
X175.1Y-93.0
X175.5Y-98.25
X181.5Y-81.0
X182.25Y-99.25
X182.25Y-101.95
X182.5Y-74.9
X182.5Y-76.1
X183.75Y-105.75
X184.0Y-73.4
X184.201Y-102.799
X184.25Y-99.25
X184.5Y-104.0
X185.0Y-76.1
X188.0Y-99.25
X188.0Y-100.75
X188.75Y-85.5
X190.0Y-64.849
X190.0Y-66.049
X190.0Y-74.0
X190.5Y-61.0
X190.5Y-62.5
X190.5Y-84.5
X190.75Y-102.75
X190.75Y-104.1
X191.5Y-102.25
X191.55Y-104.1
X192.0Y-74.0
X192.1Y-87.0
X194.0Y-63.1
X196.037Y-62.963
X196.5Y-76.1
X196.5Y-79.0
X197.0Y-73.9
X197.15Y-103.5
X198.5Y-74.5
X198.5Y-102.25
X199.0Y-73.5
X199.0Y-76.1
X200.0Y-74.5
X200.0Y-76.1
X201.0Y-73.5
X201.75Y-74.75
X201.75Y-76.1
X203.0Y-74.5
X203.0Y-76.1
X203.65Y-86.0
X204.25Y-75.5
X204.25Y-92.65
X205.6Y-86.0
X205.75Y-75.5
X205.75Y-92.75
X207.5Y-74.75
X207.5Y-76.1
T2
X137.445Y-101.94
X137.445Y-104.48
X137.445Y-107.02
X137.445Y-109.56
X145.065Y-101.94
X145.065Y-104.48
X145.065Y-107.02
X145.065Y-109.56
X148.887Y-84.108
X148.887Y-86.647
X148.887Y-89.188
X148.887Y-91.727
X148.887Y-94.267
X150.5Y-123.25
X152.5Y-123.25
X153.968Y-84.108
X153.968Y-86.647
X153.968Y-89.188
X153.968Y-91.727
X153.968Y-94.267
X161.455Y-123.25
X161.69Y-78.36
X161.69Y-80.9
X161.69Y-83.44
X161.69Y-85.98
X161.69Y-88.52
X161.69Y-91.06
X161.69Y-93.6
X161.69Y-96.14
X163.455Y-123.25
X169.31Y-78.36
X169.31Y-80.9
X169.31Y-83.44
X169.31Y-85.98
X169.31Y-88.52
X169.31Y-91.06
X169.31Y-93.6
X169.31Y-96.14
X177.69Y-78.11
X177.69Y-80.65
X177.69Y-83.19
X177.69Y-85.73
X177.69Y-88.27
X177.69Y-90.81
X177.69Y-93.35
X177.69Y-95.89
X179.435Y-64.19
X179.435Y-66.73
X179.435Y-69.27
X179.435Y-71.81
X185.31Y-78.11
X185.31Y-80.65
X185.31Y-83.19
X185.31Y-85.73
X185.31Y-88.27
X185.31Y-90.81
X185.31Y-93.35
X185.31Y-95.89
X187.055Y-64.19
X187.055Y-66.73
X187.055Y-69.27
X187.055Y-71.81
X194.19Y-78.11
X194.19Y-80.65
X194.19Y-83.19
X194.19Y-85.73
X194.19Y-88.27
X194.19Y-90.81
X194.19Y-93.35
X194.19Y-95.89
X201.81Y-78.11
X201.81Y-80.65
X201.81Y-83.19
X201.81Y-85.73
X201.81Y-88.27
X201.81Y-90.81
X201.81Y-93.35
X201.81Y-95.89
X207.42Y-78.0
X207.42Y-83.0
X207.42Y-89.0
X207.42Y-95.0
X217.58Y-78.0
X217.58Y-83.0
X217.58Y-89.0
X217.58Y-95.0
T3
X224.0Y-74.0
X224.0Y-76.54
X224.0Y-81.235
X224.0Y-83.775
X224.0Y-88.46
X224.0Y-91.0
X224.0Y-96.235
X224.0Y-98.775
T4
X160.4Y-70.5
X173.1Y-70.5
X188.5Y-119.0
X188.5Y-123.5
X195.0Y-119.0
X195.0Y-123.5
T5
X151.75Y-67.0
X154.75Y-67.0
T6
X202.0Y-109.632
X207.0Y-109.632
T7
X140.0Y-64.5
X140.0Y-128.0
X224.0Y-64.0
X224.0Y-128.0
M30
